<svg width="155" height="140" viewBox="0 0 155 140" fill="none" xmlns="http://www.w3.org/2000/svg">
<path d="M142.064 31.2626L144.266 27.713L143.179 27.0398C142.859 26.8416 142.686 26.4803 142.718 26.1055C142.736 25.8983 142.742 25.69 142.738 25.4809C142.73 25.1058 142.926 24.7569 143.256 24.5796L144.383 23.9752L142.408 20.2932L141.282 20.8976C140.951 21.0749 140.552 21.0449 140.244 20.8306C140.073 20.7113 139.895 20.6014 139.713 20.5015C139.383 20.3209 139.178 19.9764 139.19 19.6009L139.23 18.3226L135.055 18.1928L135.017 19.4756C135.006 19.8519 134.775 20.1791 134.435 20.3399C134.342 20.3837 134.251 20.4297 134.16 20.4783C134.069 20.5269 133.98 20.5778 133.893 20.6305C133.573 20.8243 133.174 20.8355 132.856 20.6384L131.761 19.96L129.559 23.5096L130.648 24.1854C130.968 24.384 131.141 24.7457 131.108 25.1204C131.09 25.3265 131.084 25.5344 131.088 25.7424C131.096 26.1168 130.9 26.4657 130.569 26.6426L129.442 27.247L131.417 30.929L132.544 30.3246C132.874 30.1473 133.273 30.1773 133.581 30.3908C133.752 30.5094 133.929 30.6186 134.11 30.7177C134.441 30.898 134.646 31.2424 134.635 31.6183L134.595 32.8996L138.77 33.0294L138.81 31.7477C138.822 31.3729 139.052 31.0468 139.391 30.8864C139.484 30.8426 139.576 30.7959 139.668 30.7469C139.758 30.6982 139.848 30.6474 139.935 30.5947C140.257 30.4002 140.657 30.389 140.977 30.5875L142.064 31.2626ZM138.53 28.6267C136.865 29.5198 134.793 28.8941 133.899 27.229C133.006 25.564 133.63 23.489 135.296 22.5959C136.961 21.7028 139.037 22.3296 139.93 23.9947C140.823 25.6601 140.195 27.7339 138.53 28.6267Z" fill="#EBEBEB"/>
<path d="M21.7504 71.4822L23.9521 67.9326L22.8649 67.259C22.5451 67.0608 22.3719 66.6995 22.4041 66.3248C22.4221 66.1176 22.4284 65.9092 22.4239 65.7002C22.4157 65.3251 22.6117 64.9761 22.9423 64.7989L24.0692 64.1945L22.0944 60.5124L20.968 61.1168C20.6373 61.2941 20.2383 61.2642 19.9305 61.0499C19.7588 60.9306 19.5815 60.8206 19.3994 60.7207C19.0695 60.5401 18.8642 60.1957 18.8762 59.8202L18.9166 58.5418L14.7416 58.412L14.7031 59.6949C14.6919 60.0711 14.4611 60.3984 14.1208 60.5592C14.0284 60.6026 13.9368 60.6489 13.8462 60.6976C13.7554 60.7462 13.6664 60.797 13.5792 60.8498C13.2587 61.0435 12.8604 61.0547 12.5421 60.8576L11.447 60.1792L9.2453 63.7288L10.3344 64.4046C10.6538 64.6032 10.8269 64.9649 10.7944 65.3396C10.7765 65.5461 10.7697 65.7537 10.7738 65.9616C10.7817 66.336 10.5857 66.6849 10.2555 66.8618L9.12823 67.4662L11.103 71.1482L12.2302 70.5439C12.5604 70.3666 12.9591 70.3965 13.2669 70.6101C13.4378 70.7286 13.6147 70.8378 13.7965 70.9369C14.1267 71.1172 14.3324 71.4617 14.3209 71.8375L14.2816 73.1188L18.4565 73.2486L18.4966 71.9669C18.5082 71.5922 18.7382 71.2661 19.077 71.106C19.1698 71.0622 19.2621 71.0155 19.3538 70.9665C19.4447 70.9179 19.5337 70.867 19.6212 70.8143C19.9436 70.6198 20.3434 70.6086 20.6635 70.8072L21.7504 71.4822ZM18.2153 68.8463C16.5503 69.7394 14.4783 69.1137 13.5852 67.4486C12.6921 65.7836 13.3159 63.7086 14.9813 62.8155C16.6464 61.9224 18.7228 62.5492 19.6159 64.2143C20.5091 65.8797 19.8804 67.9532 18.2153 68.8463Z" fill="#EBEBEB"/>
<path d="M73.1671 24.4234L71.7048 21.8888L70.9291 22.3369C70.701 22.4689 70.4205 22.4562 70.1998 22.3122C70.0779 22.2325 69.9515 22.1596 69.8209 22.093C69.5868 21.9741 69.4361 21.7374 69.4361 21.4748V20.5795H66.5092V21.4752C66.5092 21.7377 66.3584 21.9745 66.1243 22.0934C65.9938 22.1596 65.8674 22.2329 65.7455 22.3126C65.5248 22.4562 65.2443 22.4693 65.0162 22.3373L64.2405 21.8892L62.7781 24.4238L63.5572 24.8722C63.7857 25.0039 63.9114 25.2545 63.8979 25.5178C63.8942 25.5892 63.8923 25.661 63.8923 25.7332C63.8923 25.8054 63.8942 25.8772 63.8979 25.9486C63.9114 26.2108 63.7864 26.4602 63.5594 26.5915L62.7781 27.0429L64.2405 29.5775L65.0184 29.1291C65.2465 28.9975 65.5274 29.0105 65.7481 29.1545C65.8696 29.2338 65.9953 29.3068 66.1254 29.373C66.3592 29.4923 66.5095 29.7286 66.5095 29.9912V30.8873H69.4365V29.9912C69.4365 29.7286 69.5868 29.4923 69.8206 29.373C69.9503 29.3068 70.0764 29.2338 70.1975 29.1545C70.4182 29.0105 70.6991 28.9975 70.9272 29.1291L71.7051 29.5775L73.1675 27.0429L72.3896 26.5941C72.1618 26.4629 72.0369 26.213 72.05 25.9505C72.0537 25.8787 72.0552 25.8065 72.0552 25.7336C72.0552 25.6614 72.0533 25.5896 72.05 25.5181C72.0365 25.2548 72.1622 25.0039 72.3907 24.8722L73.1671 24.4234ZM70.3696 25.7332C70.3696 27.0568 69.2973 28.129 67.9737 28.129C66.6502 28.129 65.5757 27.0568 65.5757 25.7332C65.5757 24.4096 66.6502 23.3351 67.9737 23.3351C69.2973 23.3351 70.3696 24.4096 70.3696 25.7332Z" fill="#EBEBEB"/>
<path d="M17.0025 77.2157C12.1146 82.0006 11.2945 89.4032 12.3245 95.8872C12.351 96.0342 12.5788 95.9942 12.5788 95.8562C12.5788 94.38 12.5343 92.9173 12.5388 91.4591C12.5653 91.3921 12.5878 91.3297 12.6147 91.2627C13.89 90.3352 15.0629 89.2873 15.7899 87.8511C16.606 86.2459 16.9269 84.435 17.5515 82.7583C17.6095 82.5979 17.4382 82.645 17.3263 82.7277C14.3534 84.9201 13.4057 87.28 12.5526 90.4332C12.5926 88.7966 12.7175 87.1599 13.0698 85.5233C13.712 82.5309 14.9829 79.5655 17.1326 77.3447C17.2123 77.2602 17.0874 77.1308 17.0025 77.2157Z" fill="#263238"/>
<path d="M17.921 77.7733C18.7617 77.8017 19.2891 79.1455 19.9443 79.5378C20.291 79.7465 20.6288 79.7338 20.8722 79.392C21.5215 78.4858 20.6306 77.3675 19.7929 76.7422C20.392 76.9886 20.8891 77.4214 21.535 77.544C21.9262 77.6158 22.2302 77.4707 22.3215 77.0732C22.6061 75.8375 21.0562 75.2877 19.993 75.2619C20.5083 74.9036 21.986 73.9293 21.201 73.4502C20.4055 72.9693 18.6716 74.3624 18.1061 74.8209C17.2751 75.4953 16.2836 76.5032 16.2462 77.5579C16.1976 78.7895 17.274 78.0317 17.921 77.7733Z" fill="#084FFF"/>
<path opacity="0.1" d="M17.921 77.7733C18.7617 77.8017 19.2891 79.1455 19.9443 79.5378C20.291 79.7465 20.6288 79.7338 20.8722 79.392C21.5215 78.4858 20.6306 77.3675 19.7929 76.7422C20.392 76.9886 20.8891 77.4214 21.535 77.544C21.9262 77.6158 22.2302 77.4707 22.3215 77.0732C22.6061 75.8375 21.0562 75.2877 19.993 75.2619C20.5083 74.9036 21.986 73.9293 21.201 73.4502C20.4055 72.9693 18.6716 74.3624 18.1061 74.8209C17.2751 75.4953 16.2836 76.5032 16.2462 77.5579C16.1976 78.7895 17.274 78.0317 17.921 77.7733Z" fill="black"/>
<path d="M17.6779 77.9809C18.7532 77.4921 20.818 78.1956 20.9938 77.7887C21.3498 76.9606 19.6994 76.3921 18.8085 76.2822C19.6291 76.06 21.201 75.7058 21.1527 74.9145C21.0937 73.9484 18.7416 74.7791 17.5511 75.692C16.0514 76.8421 16.0611 77.9517 16.3091 78.1739C16.649 78.4791 17.5003 78.0617 17.6779 77.9809Z" fill="#084FFF"/>
<path d="M5.87146 76.7418C10.9373 81.3375 12.0391 88.7034 11.2563 95.2222C11.2354 95.3703 11.0065 95.3389 11.0012 95.2009C10.9451 93.7258 10.9339 92.2624 10.8741 90.8057C10.8449 90.7398 10.8202 90.6785 10.7907 90.6123C9.48093 89.7338 8.26917 88.7315 7.48826 87.3241C6.6116 85.7511 6.2219 83.954 5.53448 82.302C5.47053 82.1438 5.64332 82.1842 5.75851 82.2628C8.81259 84.3407 9.84969 86.6629 10.8221 89.7809C10.7196 88.1469 10.5326 86.5163 10.1186 84.8942C9.36312 81.9284 7.98044 79.0134 5.74804 76.876C5.66389 76.7945 5.78357 76.6602 5.87146 76.7418Z" fill="#263238"/>
<path d="M4.97496 77.3342C4.13571 77.3944 3.66035 78.7576 3.02044 79.1743C2.68197 79.3961 2.34425 79.3961 2.08768 79.0639C1.40439 78.1828 2.25187 77.0316 3.06532 76.3749C2.4759 76.6438 1.99568 77.0952 1.35502 77.2426C0.966807 77.329 0.657508 77.1958 0.550918 76.802C0.219554 75.5779 1.74734 74.9698 2.80876 74.9036C2.27992 74.5651 0.766342 73.6477 1.53267 73.139C2.30909 72.6282 4.09494 73.954 4.67726 74.3912C5.53335 75.0333 6.56222 76.0028 6.64001 77.0552C6.73538 78.2838 5.63133 77.5676 4.97496 77.3342Z" fill="#084FFF"/>
<path opacity="0.1" d="M4.97496 77.3342C4.13571 77.3944 3.66035 78.7576 3.02044 79.1743C2.68197 79.3961 2.34425 79.3961 2.08768 79.0639C1.40439 78.1828 2.25187 77.0316 3.06532 76.3749C2.4759 76.6438 1.99568 77.0952 1.35502 77.2426C0.966807 77.329 0.657508 77.1958 0.550918 76.802C0.219554 75.5779 1.74734 74.9698 2.80876 74.9036C2.27992 74.5651 0.766342 73.6477 1.53267 73.139C2.30909 72.6282 4.09494 73.954 4.67726 74.3912C5.53335 75.0333 6.56222 76.0028 6.64001 77.0552C6.73538 78.2838 5.63133 77.5676 4.97496 77.3342Z" fill="black"/>
<path d="M5.2259 77.5321C4.13307 77.0844 2.0959 77.866 1.90516 77.4662C1.51807 76.652 3.14534 76.0218 4.03135 75.8779C3.20294 75.6871 1.61867 75.3931 1.637 74.6006C1.65906 73.6331 4.04107 74.3736 5.26555 75.2406C6.80792 76.3326 6.84046 77.4419 6.6011 77.6734C6.27273 77.9909 5.40617 77.6061 5.2259 77.5321Z" fill="#084FFF"/>
<path d="M11.0521 88.8792C11.4261 91.3012 11.8898 93.8055 12.6251 96.1457C12.6954 96.3588 13.0118 96.3042 12.9793 96.0742C12.6465 93.8351 12.0398 91.6371 11.7073 89.398C11.3692 87.1323 11.1886 84.8352 11.3184 82.5437C11.5316 78.7704 12.5563 74.7566 15.0187 71.8039C15.073 71.7339 14.9581 71.6348 14.9024 71.6999C9.97272 77.4475 10.757 84.4948 10.7615 85.1265C10.0636 82.7467 9.3444 80.0195 6.70471 77.5964C6.59102 77.4917 6.502 77.5414 6.52108 77.7191C6.99307 82.1326 8.22016 84.4368 10.7791 86.7964C10.8509 87.4958 10.941 88.1918 11.0521 88.8792Z" fill="#263238"/>
<path d="M15.0625 72.4647C15.9493 72.0709 17.1726 73.2 18.05 73.277C18.5145 73.3189 18.8586 73.1357 18.9394 72.6588C19.1571 71.3913 17.6697 70.68 16.4856 70.4526C17.2313 70.4066 17.9648 70.6056 18.6967 70.4077C19.1387 70.285 19.3811 69.9817 19.276 69.5232C18.9491 68.0975 17.0645 68.3073 15.9481 68.816C16.3027 68.1847 17.345 66.4299 16.2896 66.3281C15.2222 66.2294 14.1245 68.5474 13.7685 69.3082C13.2456 70.4264 12.7243 71.9707 13.2164 73.0841C13.786 74.3863 14.5213 73.0583 15.0625 72.4647Z" fill="#084FFF"/>
<path opacity="0.1" d="M15.0625 72.4647C15.9493 72.0709 17.1726 73.2 18.05 73.277C18.5145 73.3189 18.8586 73.1357 18.9394 72.6588C19.1571 71.3913 17.6697 70.68 16.4856 70.4526C17.2313 70.4066 17.9648 70.6056 18.6967 70.4077C19.1387 70.285 19.3811 69.9817 19.276 69.5232C18.9491 68.0975 17.0645 68.3073 15.9481 68.816C16.3027 68.1847 17.345 66.4299 16.2896 66.3281C15.2222 66.2294 14.1245 68.5474 13.7685 69.3082C13.2456 70.4264 12.7243 71.9707 13.2164 73.0841C13.786 74.3863 14.5213 73.0583 15.0625 72.4647Z" fill="black"/>
<path d="M14.9144 72.8025C15.784 71.7541 18.2808 71.4445 18.258 70.9339C18.2105 69.8957 16.2122 70.137 15.2323 70.4709C15.9717 69.8273 17.4243 68.6686 16.9759 67.872C16.4284 66.8992 14.4062 68.9454 13.6305 70.4919C12.6532 72.44 13.2217 73.5864 13.5912 73.6922C14.098 73.8369 14.7712 72.9756 14.9144 72.8025Z" fill="#084FFF"/>
<path d="M7.80877 90.2077L5.6347 106.819H18.8646C18.5919 105.347 16.1295 90.1886 16.1295 90.1886L7.80877 90.2077Z" fill="#084FFF"/>
<path d="M0 106.875L19.3193 106.784L38.6391 106.751L77.2781 106.688L115.917 106.751L135.237 106.784L154.556 106.875L135.237 106.967L115.917 107L77.2781 107.062L38.6391 106.999L19.3193 106.966L0 106.875Z" fill="#263238"/>
<path d="M77.2781 139.402C108.067 139.402 133.025 135.874 133.025 131.52C133.025 127.167 108.067 123.638 77.2781 123.638C46.4897 123.638 21.5308 127.167 21.5308 131.52C21.5308 135.874 46.4897 139.402 77.2781 139.402Z" fill="#EBEBEB"/>
<path d="M61.8226 11.4879C61.0368 11.4879 60.3243 11.3342 59.6848 11.0271C59.0449 10.7201 58.4962 10.312 58.038 9.8034C57.5795 9.29514 57.2246 8.71319 56.9729 8.05869C56.7212 7.40419 56.5952 6.73436 56.5952 6.04919C56.5952 5.3341 56.7283 4.64931 56.9953 3.99443C57.262 3.33993 57.63 2.76061 58.0983 2.25683C58.5665 1.75305 59.123 1.35287 59.7678 1.05554C60.4122 0.758586 61.1123 0.610107 61.8678 0.610107C62.6435 0.610107 63.3507 0.768683 63.9906 1.08584C64.6302 1.40299 65.1766 1.8185 65.6299 2.33238C66.0832 2.84625 66.4355 3.43044 66.6875 4.08494C66.9392 4.73982 67.0653 5.40441 67.0653 6.07948C67.0653 6.79495 66.934 7.47675 66.6726 8.12676C66.4104 8.7764 66.048 9.35049 65.5846 9.84903C65.1212 10.3476 64.5673 10.7455 63.9229 11.0425C63.2778 11.3394 62.578 11.4879 61.8226 11.4879ZM58.7101 6.04882C58.7101 6.5122 58.7804 6.96063 58.9214 7.39335C59.0624 7.82644 59.2663 8.20941 59.5333 8.54153C59.8 8.87401 60.1276 9.14067 60.5154 9.34226C60.9029 9.54384 61.3438 9.64445 61.8375 9.64445C62.3409 9.64445 62.7867 9.54123 63.1746 9.33478C63.5624 9.12871 63.8897 8.85381 64.1567 8.51123C64.4233 8.16902 64.6249 7.7838 64.7611 7.35557C64.8972 6.92734 64.9649 6.49201 64.9649 6.04844C64.9649 5.58543 64.8916 5.137 64.7457 4.70391C64.5995 4.27082 64.3931 3.88822 64.1264 3.55573C63.8594 3.22325 63.5321 2.9592 63.1446 2.76248C62.7568 2.56613 62.3211 2.46776 61.8379 2.46776C61.3341 2.46776 60.8861 2.57099 60.493 2.77744C60.1003 2.98389 59.773 3.25578 59.5112 3.59313C59.2491 3.93085 59.0505 4.31346 58.9143 4.74131C58.7782 5.17029 58.7101 5.60563 58.7101 6.04882Z" fill="#263238"/>
<path d="M72.1266 11.5635C71.4819 11.5635 70.9029 11.4528 70.3894 11.231C69.8755 11.0096 69.4398 10.7097 69.0823 10.3323C68.7247 9.95455 68.4502 9.51884 68.2587 9.02516C68.0672 8.53186 67.9715 8.01274 67.9715 7.46895C67.9715 6.91505 68.0672 6.39145 68.2587 5.89777C68.4498 5.40447 68.7247 4.96876 69.0823 4.59102C69.4398 4.21328 69.8755 3.9137 70.3894 3.69192C70.9029 3.47051 71.4819 3.35944 72.1266 3.35944C72.771 3.35944 73.3477 3.47051 73.8568 3.69192C74.365 3.9137 74.7985 4.21328 75.156 4.59102C75.5136 4.96876 75.7881 5.40447 75.9796 5.89777C76.1707 6.39145 76.2664 6.91505 76.2664 7.46895C76.2664 8.01274 76.1707 8.53186 75.9796 9.02516C75.7881 9.51884 75.5162 9.95418 75.1639 10.3323C74.8112 10.71 74.3781 11.01 73.8646 11.231C73.3504 11.4524 72.771 11.5635 72.1266 11.5635ZM70.0565 7.46895C70.0565 7.82163 70.1097 8.1414 70.2151 8.42826C70.321 8.71549 70.4668 8.96457 70.6531 9.17626C70.8393 9.38757 71.0585 9.55138 71.3102 9.66732C71.5619 9.78326 71.8338 9.84123 72.1263 9.84123C72.4184 9.84123 72.6903 9.78326 72.942 9.66732C73.1937 9.55175 73.4128 9.38794 73.5991 9.17626C73.7853 8.96457 73.9316 8.71287 74.037 8.42078C74.1429 8.12868 74.1956 7.80667 74.1956 7.45399C74.1956 7.11178 74.1425 6.79463 74.037 6.50216C73.9312 6.21006 73.7853 5.95836 73.5991 5.74668C73.4124 5.53499 73.1933 5.37156 72.942 5.25562C72.6903 5.13968 72.4184 5.08171 72.1263 5.08171C71.8338 5.08171 71.5619 5.14229 71.3102 5.2631C71.0585 5.3839 70.8393 5.55033 70.6531 5.76164C70.4664 5.97332 70.3206 6.22502 70.2151 6.51712C70.1093 6.80959 70.0565 7.12674 70.0565 7.46895Z" fill="#263238"/>
<path d="M82.3694 11.5635C81.7448 11.5635 81.201 11.4251 80.738 11.148C80.2746 10.8712 79.9118 10.4961 79.65 10.0226V14.6307H77.6255V3.49557H79.3931V4.85506C79.6852 4.39205 80.0629 4.02665 80.5263 3.75962C80.9893 3.49295 81.5234 3.35944 82.1274 3.35944C82.6615 3.35944 83.1548 3.4679 83.608 3.68444C84.0613 3.90099 84.4518 4.19308 84.779 4.56072C85.1063 4.92837 85.3632 5.36146 85.5499 5.86C85.7361 6.35854 85.8292 6.88513 85.8292 7.43903C85.8292 8.01312 85.7436 8.55205 85.5723 9.05546C85.401 9.55923 85.1616 9.99756 84.8546 10.3701C84.5472 10.7429 84.1821 11.0347 83.7592 11.2463C83.3365 11.4577 82.8731 11.5635 82.3694 11.5635ZM81.6898 9.84123C81.992 9.84123 82.2714 9.77578 82.5283 9.64488C82.7849 9.51398 83.004 9.33783 83.1854 9.11605C83.3665 8.89464 83.5074 8.6377 83.6084 8.34523C83.7094 8.05314 83.7595 7.75132 83.7595 7.43903C83.7595 7.10654 83.7042 6.79687 83.5935 6.51001C83.4824 6.22278 83.329 5.9737 83.1327 5.76201C82.9363 5.5507 82.7045 5.38427 82.4378 5.26347C82.1708 5.14267 81.8813 5.08208 81.5694 5.08208C81.3779 5.08208 81.1815 5.11499 80.9803 5.18044C80.7787 5.24589 80.5925 5.33902 80.4212 5.46019C80.2499 5.581 80.0966 5.72237 79.9604 5.88319C79.8247 6.04438 79.7211 6.22091 79.6508 6.41202V8.27043C79.8321 8.72372 80.1093 9.09884 80.4818 9.39579C80.8535 9.69275 81.2567 9.84123 81.6898 9.84123Z" fill="#263238"/>
<path d="M90.1957 11.5635C89.5311 11.5635 88.8811 11.4576 88.2468 11.2463C87.6121 11.035 87.0683 10.7324 86.615 10.3397L87.3705 9.07074C87.854 9.41333 88.3249 9.67251 88.7831 9.84866C89.2416 10.0252 89.6971 10.1131 90.1504 10.1131C90.5528 10.1131 90.8704 10.0375 91.1022 9.88644C91.3338 9.73534 91.4497 9.5188 91.4497 9.2368C91.4497 8.9548 91.3139 8.74836 91.0417 8.61746C90.7698 8.48656 90.3266 8.33546 89.7121 8.16417C89.1986 8.02317 88.7603 7.88703 88.3975 7.75613C88.0347 7.62523 87.7426 7.47676 87.5212 7.31033C87.2994 7.14427 87.1386 6.95278 87.0376 6.73624C86.9366 6.51969 86.8869 6.26013 86.8869 5.95794C86.8869 5.55514 86.9647 5.19274 87.121 4.86997C87.277 4.54796 87.4961 4.27307 87.7781 4.04643C88.0601 3.81978 88.3904 3.64625 88.7677 3.52545C89.1455 3.40464 89.5554 3.34406 89.9989 3.34406C90.5932 3.34406 91.1494 3.4297 91.6685 3.60099C92.1872 3.77229 92.6629 4.04905 93.096 4.43202L92.28 5.65575C91.8772 5.35356 91.4871 5.13215 91.109 4.99115C90.7312 4.85015 90.3561 4.77984 89.9836 4.77984C89.641 4.77984 89.3538 4.85053 89.1223 4.99115C88.8904 5.13215 88.7745 5.35879 88.7745 5.67108C88.7745 5.81208 88.8021 5.92802 88.8579 6.01853C88.9128 6.10904 89.0015 6.18982 89.1223 6.26013C89.2431 6.33082 89.4017 6.39889 89.598 6.46396C89.7944 6.52979 90.0386 6.59748 90.3307 6.66779C90.8745 6.80879 91.3401 6.94979 91.7279 7.09079C92.1158 7.23178 92.4329 7.39298 92.6798 7.57399C92.9266 7.75538 93.108 7.96445 93.2239 8.20082C93.3395 8.43756 93.3975 8.72218 93.3975 9.05466C93.3975 9.83034 93.1106 10.4422 92.5362 10.8903C91.9636 11.3394 91.1827 11.5635 90.1957 11.5635Z" fill="#263238"/>
<path d="M95.1056 7.37841V0.579468H97.1301V7.37841H95.1056ZM95.1056 11.4124V9.13098H97.1301V11.4124H95.1056Z" fill="#263238"/>
<path d="M84.983 80.9575H71.7015V82.0455H84.983V80.9575Z" fill="#37474F"/>
<path d="M84.983 82.3746H71.7015V83.4626H84.983V82.3746Z" fill="#37474F"/>
<path d="M84.983 83.7921H71.7015V84.88H84.983V83.7921Z" fill="#37474F"/>
<path d="M84.983 85.2092H71.7015V86.2971H84.983V85.2092Z" fill="#37474F"/>
<path d="M84.983 86.6262H71.7015V87.7142H84.983V86.6262Z" fill="#37474F"/>
<path d="M90.7324 114.898H65.4814V115.986H90.7324V114.898Z" fill="#37474F"/>
<path d="M90.7324 116.315H65.4814V117.403H90.7324V116.315Z" fill="#37474F"/>
<path d="M90.7324 117.732H65.4814V118.82H90.7324V117.732Z" fill="#37474F"/>
<path d="M90.7324 119.149H65.4814V120.237H90.7324V119.149Z" fill="#37474F"/>
<path d="M90.7324 120.566H65.4814V121.654H90.7324V120.566Z" fill="#37474F"/>
<path d="M54.4021 71.9639C54.4144 71.8169 48.8755 69.9615 48.8755 69.9615L49.2027 50.9302L56.5477 49.3541L54.4021 71.9639Z" fill="#084FFF"/>
<path opacity="0.2" d="M54.4021 71.9639C54.4144 71.8169 48.8755 69.9615 48.8755 69.9615L49.2027 50.9302L56.5477 49.3541L54.4021 71.9639Z" fill="black"/>
<path d="M105.137 79.4342C105.176 79.2918 111.016 79.4559 111.016 79.4559L117.258 61.4744L110.904 57.467L105.137 79.4342Z" fill="#084FFF"/>
<path opacity="0.2" d="M105.137 79.4342C105.176 79.2918 111.016 79.4559 111.016 79.4559L117.258 61.4744L110.904 57.467L105.137 79.4342Z" fill="black"/>
<path d="M53.3358 78.972C53.3358 78.972 55.3894 48.1925 57.1906 38.0672C57.1906 38.0672 94.3726 40.8793 114.445 48.5512C114.445 48.5512 104.097 84.503 103.561 86.287C103.561 86.287 77.378 81.1292 53.3358 78.972Z" fill="#084FFF"/>
<path opacity="0.1" d="M86.5242 42.1775C85.9198 45.8835 85.308 49.5883 84.6748 53.2894L82.7584 64.3894L82.6552 64.2326L95.1135 67.1921L101.336 68.7001L107.552 70.238L101.303 68.8396L95.0619 67.4116L82.5923 64.4989L82.4663 64.4694L82.4891 64.3419L84.4732 53.2539C85.14 49.5588 85.8286 45.8674 86.5242 42.1775Z" fill="black"/>
<path opacity="0.1" d="M85.1572 44.2898C85.164 44.6294 84.8932 44.9783 84.5043 45.0124C84.3158 45.0303 84.1108 44.9701 83.9575 44.8366C83.8041 44.7031 83.7125 44.4974 83.7114 44.2898C83.7125 44.0822 83.8034 43.8762 83.9571 43.7427C84.1101 43.608 84.3158 43.5489 84.5043 43.5665C84.8936 43.6005 85.164 43.9502 85.1572 44.2898ZM85.1572 44.2898C85.1558 44.1185 85.0798 43.9502 84.9523 43.8421C84.8244 43.7341 84.6568 43.6899 84.5046 43.7075C84.1908 43.7438 83.9874 44.0254 83.9919 44.2898C83.987 44.5542 84.1901 44.8374 84.5046 44.8729C84.6568 44.8901 84.8248 44.846 84.9527 44.7379C85.0798 44.6294 85.1558 44.4611 85.1572 44.2898Z" fill="black"/>
<path opacity="0.1" d="M84.5042 48.8695C84.511 49.2091 84.2402 49.5584 83.8512 49.592C83.6627 49.61 83.4578 49.5498 83.3044 49.4163C83.1511 49.2827 83.0595 49.077 83.0583 48.8695C83.0595 48.6619 83.1504 48.4558 83.3041 48.3223C83.457 48.1877 83.6627 48.1286 83.8512 48.1462C84.2409 48.1806 84.5113 48.5303 84.5042 48.8695ZM84.5042 48.8695C84.5027 48.6982 84.4268 48.5299 84.2993 48.4218C84.1714 48.3137 84.0038 48.2696 83.8516 48.2871C83.5378 48.3234 83.3344 48.6051 83.3388 48.8695C83.334 49.1339 83.5371 49.417 83.8516 49.4525C84.0038 49.4697 84.1717 49.4256 84.2997 49.3171C84.4272 49.2094 84.5027 49.0408 84.5042 48.8695Z" fill="black"/>
<path opacity="0.1" d="M83.7002 53.7086C83.7069 54.0482 83.4361 54.3976 83.0472 54.4312C82.8587 54.4492 82.6537 54.3893 82.5004 54.2554C82.347 54.1219 82.2554 53.9162 82.2543 53.7086C82.2554 53.5011 82.3463 53.295 82.5 53.1615C82.653 53.0268 82.8587 52.9677 83.0472 52.9853C83.4369 53.0197 83.7073 53.3691 83.7002 53.7086ZM83.7002 53.7086C83.6987 53.5374 83.6227 53.369 83.4952 53.261C83.3673 53.1529 83.1997 53.1087 83.0475 53.1263C82.7337 53.1626 82.5303 53.4442 82.5348 53.7086C82.5299 53.9731 82.733 54.2562 83.0475 54.2917C83.1997 54.3093 83.3677 54.2648 83.4956 54.1567C83.6227 54.0482 83.6987 53.8799 83.7002 53.7086Z" fill="black"/>
<path opacity="0.1" d="M82.896 58.5479C82.9031 58.8875 82.632 59.2364 82.243 59.2704C82.0545 59.288 81.8496 59.2282 81.6962 59.0947C81.5429 58.9611 81.4513 58.7554 81.4501 58.5479C81.4509 58.3403 81.5425 58.1342 81.6959 58.0007C81.8488 57.8661 82.0545 57.807 82.243 57.8246C82.6327 57.8586 82.9031 58.2083 82.896 58.5479ZM82.896 58.5479C82.8945 58.3766 82.8186 58.2083 82.6907 58.1002C82.5628 57.9921 82.3952 57.948 82.243 57.9656C81.9292 58.0018 81.7258 58.2835 81.7303 58.5479C81.7254 58.8123 81.9285 59.0954 82.243 59.1309C82.3952 59.1481 82.5632 59.104 82.6911 58.9959C82.8186 58.8875 82.8945 58.7192 82.896 58.5479Z" fill="black"/>
<path opacity="0.1" d="M85.6359 66.2653C85.6431 66.6049 85.3719 66.9539 84.983 66.9879C84.7945 67.0055 84.5895 66.9456 84.4362 66.8121C84.2828 66.6786 84.1912 66.4729 84.1901 66.2653C84.1908 66.0578 84.2821 65.8517 84.4358 65.7182C84.5888 65.5835 84.7945 65.5244 84.983 65.542C85.3723 65.5761 85.6427 65.9257 85.6359 66.2653ZM85.6359 66.2653C85.6345 66.094 85.5585 65.9257 85.4306 65.8177C85.3027 65.7096 85.1352 65.6654 84.983 65.683C84.6692 65.7193 84.4657 66.0009 84.4702 66.2653C84.4653 66.5298 84.6684 66.8129 84.983 66.8484C85.1352 66.866 85.3031 66.8215 85.431 66.713C85.5585 66.6049 85.6341 66.4366 85.6359 66.2653Z" fill="black"/>
<path opacity="0.1" d="M90.2036 67.3795C90.2107 67.7191 89.9396 68.0684 89.5506 68.102C89.3621 68.1196 89.1572 68.0598 89.0038 67.9263C88.8505 67.7928 88.7589 67.5871 88.7578 67.3795C88.7589 67.1719 88.8501 66.9658 89.0035 66.8323C89.1564 66.6977 89.3621 66.6386 89.5506 66.6562C89.9403 66.6906 90.2107 67.0399 90.2036 67.3795ZM90.2036 67.3795C90.2021 67.2082 90.1262 67.0399 89.9987 66.9318C89.8708 66.8237 89.7032 66.7796 89.551 66.7972C89.2372 66.8334 89.0338 67.1151 89.0383 67.3795C89.0334 67.6439 89.2365 67.927 89.551 67.9625C89.7032 67.9798 89.8711 67.9356 89.9991 67.8272C90.1262 67.7191 90.2021 67.5508 90.2036 67.3795Z" fill="black"/>
<path opacity="0.1" d="M94.7716 68.494C94.7784 68.8336 94.5076 69.1825 94.1186 69.2165C93.9301 69.2341 93.7252 69.1743 93.5718 69.0408C93.4185 68.9072 93.3269 68.7015 93.3257 68.494C93.3269 68.2864 93.4178 68.0803 93.5715 67.9468C93.7244 67.8122 93.9301 67.7531 94.1186 67.7707C94.508 67.8047 94.7784 68.1544 94.7716 68.494ZM94.7716 68.494C94.7701 68.3227 94.6942 68.1544 94.5667 68.0463C94.4388 67.9382 94.2712 67.8941 94.119 67.9117C93.8052 67.9479 93.6018 68.2296 93.6062 68.494C93.6014 68.7584 93.8045 69.0415 94.119 69.077C94.2712 69.0943 94.4391 69.0501 94.5671 68.9417C94.6942 68.8336 94.7698 68.6649 94.7716 68.494Z" fill="black"/>
<path opacity="0.1" d="M99.3393 69.6082C99.3464 69.9478 99.0753 70.2967 98.6863 70.3307C98.4978 70.3483 98.2929 70.2889 98.1395 70.155C97.9862 70.0214 97.8946 69.8157 97.8934 69.6082C97.8946 69.4006 97.9854 69.1945 98.1392 69.061C98.2921 68.9264 98.4978 68.8673 98.6863 68.8849C99.076 68.9189 99.346 69.2686 99.3393 69.6082ZM99.3393 69.6082C99.3378 69.4369 99.2619 69.2686 99.1344 69.1605C99.0065 69.0524 98.8389 69.0083 98.6867 69.0259C98.3729 69.0621 98.1694 69.3438 98.1739 69.6082C98.1691 69.8726 98.3722 70.1557 98.6867 70.1912C98.8389 70.2085 99.0068 70.1643 99.1347 70.0562C99.2619 69.9478 99.3378 69.7795 99.3393 69.6082Z" fill="black"/>
<path opacity="0.1" d="M103.905 70.7724C103.886 71.1116 103.589 71.4389 103.199 71.4426C103.009 71.446 102.81 71.3704 102.667 71.2253C102.524 71.0802 102.448 70.8685 102.463 70.6613C102.48 70.4545 102.587 70.2563 102.751 70.1347C102.914 70.0124 103.123 69.969 103.31 70.0012C103.696 70.0652 103.938 70.4347 103.905 70.7724ZM103.905 70.7724C103.917 70.6015 103.854 70.4279 103.735 70.3101C103.616 70.1923 103.452 70.1355 103.299 70.1415C102.983 70.1534 102.758 70.4186 102.743 70.6826C102.717 70.9459 102.898 71.2436 103.209 71.3035C103.359 71.3327 103.53 71.3016 103.666 71.2032C103.802 71.1053 103.891 70.9433 103.905 70.7724Z" fill="black"/>
<path opacity="0.1" d="M82.0919 63.387C82.0987 63.7266 81.8279 64.0759 81.4389 64.1096C81.2504 64.1275 81.0455 64.0677 80.8921 63.9338C80.7388 63.8003 80.6472 63.5946 80.6461 63.387C80.6472 63.1795 80.7384 62.9734 80.8918 62.8399C81.0447 62.7052 81.2504 62.6458 81.4389 62.6637C81.8286 62.6977 82.099 63.0474 82.0919 63.387ZM82.0919 63.387C82.0904 63.2157 82.0145 63.0474 81.8866 62.9393C81.7587 62.8313 81.5912 62.7871 81.4389 62.8047C81.1251 62.841 80.9217 63.1226 80.9262 63.387C80.9213 63.6514 81.1244 63.9346 81.4389 63.9701C81.5912 63.9873 81.7591 63.9432 81.8866 63.8347C82.0149 63.7266 82.0904 63.5583 82.0919 63.387Z" fill="black"/>
<path opacity="0.2" d="M74.3995 71.4051C78.7356 67.5064 79.0902 60.8307 75.1914 56.4946C71.2926 52.1584 64.617 51.8039 60.2808 55.7027C55.9447 59.6014 55.5902 66.2771 59.489 70.6132C63.3877 74.9494 70.0634 75.3039 74.3995 71.4051Z" fill="black"/>
<path d="M75.256 66.5518C76.9116 62.1783 74.7081 57.2908 70.3346 55.6352C65.961 53.9797 61.0735 56.1831 59.418 60.5567C57.7625 64.9302 59.9659 69.8178 64.3394 71.4733C68.713 73.1288 73.6005 70.9254 75.256 66.5518Z" fill="#263238"/>
<path d="M66.8298 60.441L64.8503 60.1203L64.5296 62.0998L66.5091 62.4205L66.8298 60.441Z" fill="#084FFF"/>
<path d="M65.1707 58.1409L63.1912 57.8203L62.8706 59.7998L64.8501 60.1204L65.1707 58.1409Z" fill="#084FFF"/>
<path d="M73.0888 59.4235L71.1093 59.1028L70.7887 61.0824L72.7682 61.403L73.0888 59.4235Z" fill="#084FFF"/>
<path d="M63.8953 66.0141L61.9158 65.6934L61.5951 67.6729L63.5746 67.9936L63.8953 66.0141Z" fill="#084FFF"/>
<path d="M71.8134 67.2967L69.8339 66.9761L69.5132 68.9556L71.4927 69.2763L71.8134 67.2967Z" fill="#084FFF"/>
<path d="M66.1956 64.3555L64.2161 64.0348L63.8954 66.0143L65.8749 66.335L66.1956 64.3555Z" fill="#084FFF"/>
<path d="M68.4923 62.7189L66.5128 62.3982L66.1921 64.3777L68.1716 64.6984L68.4923 62.7189Z" fill="#084FFF"/>
<path d="M70.7889 61.0823L68.8094 60.7616L68.4887 62.7411L70.4682 63.0618L70.7889 61.0823Z" fill="#084FFF"/>
<path d="M70.1568 64.9955L68.1772 64.6749L67.8566 66.6544L69.8361 66.975L70.1568 64.9955Z" fill="#084FFF"/>
<path d="M103.843 74.6653C107.538 70.1548 106.878 63.5023 102.368 59.8064C97.8572 56.1106 91.2046 56.771 87.5088 61.2814C83.813 65.7919 84.4734 72.4444 88.9838 76.1403C93.4943 79.8361 100.147 79.1757 103.843 74.6653Z" fill="#084FFF"/>
<path opacity="0.2" d="M103.843 74.6653C107.538 70.1548 106.878 63.5023 102.368 59.8064C97.8572 56.1106 91.2046 56.771 87.5088 61.2814C83.813 65.7919 84.4734 72.4444 88.9838 76.1403C93.4943 79.8361 100.147 79.1757 103.843 74.6653Z" fill="black"/>
<path opacity="0.2" d="M105.949 70.4208C105.9 70.6288 105.845 70.8296 105.783 71.0305L85.2021 66.6408C85.2508 66.2736 85.3166 65.9063 85.403 65.5356C86.7509 59.8639 92.4432 56.3577 98.1186 57.7052C103.791 59.0531 107.297 64.7454 105.949 70.4208Z" fill="black"/>
<path d="M98.9385 75.7927C103.254 73.9899 105.29 69.0303 103.487 64.7152C101.685 60.4001 96.725 58.3635 92.4099 60.1664C88.0948 61.9692 86.0582 66.9288 87.861 71.2439C89.6638 75.559 94.6234 77.5955 98.9385 75.7927Z" fill="#263238"/>
<path d="M97.8072 63.3516L95.8562 62.8879L93.5484 72.5991L95.4995 73.0628L97.8072 63.3516Z" fill="#084FFF"/>
<path d="M106.562 70.2222L84.9441 65.0846C86.3627 59.1163 92.3527 55.4287 98.3209 56.8469C104.29 58.2658 107.98 64.2539 106.562 70.2222Z" fill="#084FFF"/>
<path opacity="0.2" d="M106.562 70.2222L84.9441 65.0846C86.3627 59.1163 92.3527 55.4287 98.3209 56.8469C104.29 58.2658 107.98 64.2539 106.562 70.2222Z" fill="black"/>
<path opacity="0.1" d="M77.3047 74.2543C77.3594 73.4102 77.6694 72.5541 78.2816 71.8772C78.5835 71.5361 78.9863 71.2683 79.4298 71.1052C79.8756 70.9414 80.3573 70.9126 80.814 70.9515C81.2789 71.0058 81.7535 71.1696 82.1409 71.4628C82.5209 71.762 82.8123 72.1521 82.9836 72.5721C83.3362 73.4091 83.3748 74.3037 83.2038 75.1332C83.0632 74.3041 82.8489 73.4988 82.4596 72.838C82.0733 72.1719 81.4621 71.7579 80.734 71.6935C79.9912 71.6012 79.2664 71.8005 78.6826 72.2938C78.0988 72.7856 77.6529 73.4899 77.3047 74.2543Z" fill="black"/>
<path d="M56.228 52.7187C56.3155 51.5907 56.4423 50.468 56.5492 49.3426C56.6693 48.2191 56.7927 47.096 56.9292 45.9751C57.059 44.8531 57.2052 43.7333 57.3488 42.6128C57.4895 41.4923 57.6518 40.3748 57.8021 39.2554L57.8421 38.9566L58.1451 38.9757C60.5813 39.129 63.0123 39.3257 65.44 39.5756C66.6536 39.7001 67.8657 39.8411 69.0764 39.9967C70.2848 40.1702 71.495 40.3303 72.6963 40.5502L65.3969 40.0984L58.1051 39.6268L58.448 39.3471C58.2823 40.4642 58.1283 41.5828 57.9529 42.6985C57.7801 43.8145 57.6099 44.9309 57.4236 46.045C57.2441 47.1599 57.0515 48.2733 56.8552 49.386C56.6461 50.4967 56.4565 51.6105 56.228 52.7187Z" fill="white"/>
<path d="M57.9839 61.2518C58.2289 59.8957 58.8452 58.6035 59.6732 57.4782C59.8793 57.1951 60.1138 56.9336 60.3393 56.6644C60.5836 56.4123 60.8375 56.1684 61.0881 55.9212C61.3615 55.6991 61.6375 55.4788 61.918 55.2652C62.2161 55.0764 62.5104 54.8793 62.8134 54.6979C63.1324 54.5445 63.4495 54.3867 63.7715 54.2408L64.7746 53.8938L65.8128 53.6795C66.1614 53.6286 66.5156 53.6178 66.8653 53.5916C68.273 53.5553 69.6587 53.8556 70.9303 54.3706C69.5768 54.117 68.2281 53.9764 66.8985 54.1032C65.5723 54.2266 64.2835 54.6231 63.1312 55.2723C61.97 55.9063 60.9415 56.7807 60.0727 57.7965C59.2076 58.8175 58.4914 59.9739 57.9839 61.2518Z" fill="white"/>
<path d="M87.1095 64.104C87.5396 62.7946 88.3284 61.6 89.3038 60.5996C89.5469 60.3479 89.8154 60.1212 90.0761 59.8856C90.3525 59.6698 90.6378 59.4634 90.9202 59.2528C91.2216 59.0703 91.5253 58.8904 91.8327 58.7176C92.154 58.5718 92.4727 58.4169 92.798 58.2793C93.1354 58.1716 93.4712 58.059 93.8101 57.9591L94.8517 57.7538L95.9097 57.685C96.262 57.6824 96.614 57.7209 96.964 57.743C98.3635 57.9015 99.6939 58.3904 100.882 59.0759C99.5768 58.638 98.2607 58.3122 96.9263 58.2546C95.5956 58.194 94.2645 58.4087 93.0337 58.8926C91.7961 59.3601 90.6565 60.0842 89.6557 60.9702C88.6571 61.8622 87.7883 62.9083 87.1095 64.104Z" fill="white"/>
<path d="M54.5169 97.9398C51.8121 97.9398 45.8909 97.3316 42.0806 92.4326C37.2059 86.1651 38.9678 74.1388 39.0449 73.6298L41.1613 73.951C41.1437 74.0666 39.4619 85.5787 43.7703 91.1184C47.9827 96.5343 55.6232 95.7567 55.6998 95.7474L55.9407 97.8743C55.8573 97.8844 55.3333 97.9398 54.5169 97.9398Z" fill="#084FFF"/>
<path opacity="0.4" d="M54.5169 97.9398C51.8121 97.9398 45.8909 97.3316 42.0806 92.4326C37.2059 86.1651 38.9678 74.1388 39.0449 73.6298L41.1613 73.951C41.1437 74.0666 39.4619 85.5787 43.7703 91.1184C47.9827 96.5343 55.6232 95.7567 55.6998 95.7474L55.9407 97.8743C55.8573 97.8844 55.3333 97.9398 54.5169 97.9398Z" fill="white"/>
<path d="M41.7844 75.4074C41.3985 75.4074 41.0043 75.3752 40.603 75.3101C37.0328 74.7319 35.4522 72.5957 34.7547 70.9052C34.0557 69.211 33.8942 67.1614 34.2745 64.8142L38.8022 65.548C38.5665 67.0021 38.635 68.2838 38.9948 69.156C39.2513 69.7783 39.7495 70.5256 41.3364 70.7825C42.0612 70.8999 42.8447 70.8379 43.6653 69.6003C44.2985 68.6451 44.6792 67.3451 44.8123 66.5215L49.34 67.2549C49.2353 67.9027 48.7913 70.1691 47.4879 72.1349C46.0705 74.273 44.0752 75.4074 41.7844 75.4074Z" fill="#084FFF"/>
<path d="M58.9896 104.066C58.9817 103.969 55.1538 103.357 55.1538 103.357L53.2958 90.8637L57.9323 89.0322L58.9896 104.066Z" fill="#084FFF"/>
<path opacity="0.2" d="M58.9896 104.066C58.9817 103.969 55.1538 103.357 55.1538 103.357L53.2958 90.8637L57.9323 89.0322L58.9896 104.066Z" fill="black"/>
<path d="M96.8369 104.089C96.847 103.992 100.688 103.465 100.688 103.465L102.821 91.0159L98.2263 89.0823L96.8369 104.089Z" fill="#084FFF"/>
<path opacity="0.2" d="M96.8369 104.089C96.847 103.992 100.688 103.465 100.688 103.465L102.821 91.0159L98.2263 89.0823L96.8369 104.089Z" fill="black"/>
<path d="M57.3967 86.2347C57.3967 86.2347 88.3587 84.9107 98.8176 86.6539C98.8176 86.6539 95.7463 116.614 95.5802 117.195C95.5802 117.195 64.7809 117.112 59.9664 117.195C59.9664 117.195 57.357 97.2729 57.3967 86.2347Z" fill="#084FFF"/>
<path opacity="0.2" d="M66.8016 94.4444C66.8016 94.4444 83.7038 93.7768 89.4137 94.6557C89.4137 94.6557 87.737 109.763 87.6465 110.056C87.6465 110.056 70.833 110.014 68.2049 110.056C68.2041 110.056 67.0492 99.7163 66.8016 94.4444Z" fill="black"/>
<path opacity="0.2" d="M69.1115 110.05C68.7244 110.05 68.4177 110.054 68.203 110.057C68.203 110.057 67.0496 99.7156 66.8002 94.4437C66.8002 94.4437 67.1846 94.4287 67.856 94.4062L69.1115 110.05Z" fill="black"/>
<path d="M74.0969 98.172C73.1496 97.8736 72.1401 98.3994 71.8417 99.346C71.5429 100.294 72.0694 101.303 73.0168 101.601C73.9634 101.9 74.9717 101.374 75.2701 100.427C75.5686 99.4807 75.0435 98.4705 74.0969 98.172ZM75.0618 100.361C74.7996 101.194 73.9136 101.655 73.0822 101.393C72.2508 101.131 71.7889 100.245 72.0515 99.4126C72.3137 98.5812 73.1997 98.1193 74.0318 98.3818C74.8621 98.6436 75.324 99.5297 75.0618 100.361ZM74.0969 98.172C73.1496 97.8736 72.1401 98.3994 71.8417 99.346C71.5429 100.294 72.0694 101.303 73.0168 101.601C73.9634 101.9 74.9717 101.374 75.2701 100.427C75.5686 99.4807 75.0435 98.4705 74.0969 98.172ZM75.0618 100.361C74.7996 101.194 73.9136 101.655 73.0822 101.393C72.2508 101.131 71.7889 100.245 72.0515 99.4126C72.3137 98.5812 73.1997 98.1193 74.0318 98.3818C74.8621 98.6436 75.324 99.5297 75.0618 100.361ZM74.0969 98.172C73.1496 97.8736 72.1401 98.3994 71.8417 99.346C71.5429 100.294 72.0694 101.303 73.0168 101.601C73.9634 101.9 74.9717 101.374 75.2701 100.427C75.5686 99.4807 75.0435 98.4705 74.0969 98.172ZM75.0618 100.361C74.7996 101.194 73.9136 101.655 73.0822 101.393C72.2508 101.131 71.7889 100.245 72.0515 99.4126C72.3137 98.5812 73.1997 98.1193 74.0318 98.3818C74.8621 98.6436 75.324 99.5297 75.0618 100.361ZM74.696 96.2729C72.6985 95.6438 70.5716 96.7534 69.9421 98.748C69.3134 100.744 70.4209 102.872 72.4176 103.501C74.4122 104.129 76.541 103.021 77.1697 101.025C77.7991 99.0307 76.691 96.9012 74.696 96.2729ZM75.5375 100.511C75.1931 101.604 74.0247 102.213 72.9326 101.868C71.8406 101.524 71.2317 100.356 71.5758 99.2626C71.9202 98.1694 73.0893 97.5617 74.1814 97.9057C75.2728 98.2502 75.8816 99.4186 75.5375 100.511ZM75.2701 100.427C75.5686 99.4807 75.0435 98.4709 74.0969 98.1724C73.1496 97.8739 72.1401 98.3998 71.8417 99.3464C71.5429 100.295 72.0694 101.303 73.0168 101.602C73.9634 101.9 74.9717 101.375 75.2701 100.427ZM75.0618 100.361C74.7996 101.194 73.9136 101.655 73.0822 101.393C72.2508 101.131 71.7889 100.245 72.0515 99.4126C72.3137 98.5812 73.1997 98.1193 74.0318 98.3818C74.8621 98.6436 75.324 99.5297 75.0618 100.361ZM74.0969 98.172C73.1496 97.8736 72.1401 98.3994 71.8417 99.346C71.5429 100.294 72.0694 101.303 73.0168 101.601C73.9634 101.9 74.9717 101.374 75.2701 100.427C75.5686 99.4807 75.0435 98.4705 74.0969 98.172ZM75.0618 100.361C74.7996 101.194 73.9136 101.655 73.0822 101.393C72.2508 101.131 71.7889 100.245 72.0515 99.4126C72.3137 98.5812 73.1997 98.1193 74.0318 98.3818C74.8621 98.6436 75.324 99.5297 75.0618 100.361ZM74.0969 98.172C73.1496 97.8736 72.1401 98.3994 71.8417 99.346C71.5429 100.294 72.0694 101.303 73.0168 101.601C73.9634 101.9 74.9717 101.374 75.2701 100.427C75.5686 99.4807 75.0435 98.4705 74.0969 98.172ZM75.0618 100.361C74.7996 101.194 73.9136 101.655 73.0822 101.393C72.2508 101.131 71.7889 100.245 72.0515 99.4126C72.3137 98.5812 73.1997 98.1193 74.0318 98.3818C74.8621 98.6436 75.324 99.5297 75.0618 100.361Z" fill="#084FFF"/>
<path d="M73.1597 103.57L71.7702 103.132L71.5369 104.14L72.7729 104.529L73.1597 103.57Z" fill="#084FFF"/>
<path d="M70.6625 102.268L69.9893 100.976L69.1119 101.524L69.7103 102.673L70.6625 102.268Z" fill="#084FFF"/>
<path d="M69.8169 99.5816L70.2544 98.1922L69.2469 97.9592L68.8572 99.1949L69.8169 99.5816Z" fill="#084FFF"/>
<path d="M71.1184 97.0845L72.4105 96.4116L71.8626 95.5339L70.7133 96.1327L71.1184 97.0845Z" fill="#084FFF"/>
<path d="M73.8044 96.2389L75.1942 96.6768L75.4272 95.6689L74.1915 95.2795L73.8044 96.2389Z" fill="#084FFF"/>
<path d="M76.302 97.5403L76.9748 98.8325L77.8526 98.285L77.2538 97.1357L76.302 97.5403Z" fill="#084FFF"/>
<path d="M77.1476 100.227L76.7097 101.616L77.7176 101.85L78.1069 100.614L77.1476 100.227Z" fill="#084FFF"/>
<path d="M75.8461 102.724L74.5536 103.397L75.1015 104.275L76.2508 103.676L75.8461 102.724Z" fill="#084FFF"/>
<path d="M80.2084 103.46C79.6482 103.095 78.8983 103.254 78.5337 103.813C78.1683 104.374 78.3276 105.124 78.8878 105.489C79.4477 105.853 80.1965 105.695 80.5615 105.134C80.9261 104.575 80.7683 103.825 80.2084 103.46ZM80.4384 105.054C80.1179 105.547 79.4597 105.686 78.9679 105.365C78.4761 105.045 78.3369 104.387 78.6575 103.895C78.9776 103.403 79.6358 103.264 80.128 103.584C80.6195 103.904 80.7586 104.562 80.4384 105.054ZM80.2084 103.46C79.6482 103.095 78.8983 103.254 78.5337 103.813C78.1683 104.374 78.3276 105.124 78.8878 105.489C79.4477 105.853 80.1965 105.695 80.5615 105.134C80.9261 104.575 80.7683 103.825 80.2084 103.46ZM80.4384 105.054C80.1179 105.547 79.4597 105.686 78.9679 105.365C78.4761 105.045 78.3369 104.387 78.6575 103.895C78.9776 103.403 79.6358 103.264 80.128 103.584C80.6195 103.904 80.7586 104.562 80.4384 105.054ZM80.2084 103.46C79.6482 103.095 78.8983 103.254 78.5337 103.813C78.1683 104.374 78.3276 105.124 78.8878 105.489C79.4477 105.853 80.1965 105.695 80.5615 105.134C80.9261 104.575 80.7683 103.825 80.2084 103.46ZM80.4384 105.054C80.1179 105.547 79.4597 105.686 78.9679 105.365C78.4761 105.045 78.3369 104.387 78.6575 103.895C78.9776 103.403 79.6358 103.264 80.128 103.584C80.6195 103.904 80.7586 104.562 80.4384 105.054ZM80.9403 102.337C79.7585 101.568 78.1787 101.903 77.4098 103.083C76.6412 104.263 76.9744 105.844 78.1555 106.612C79.3355 107.381 80.9164 107.047 81.685 105.866C82.4539 104.686 82.1203 103.105 80.9403 102.337ZM80.7197 105.237C80.2986 105.884 79.4309 106.068 78.785 105.647C78.1391 105.226 77.9551 104.358 78.3762 103.712C78.7973 103.065 79.6654 102.882 80.3113 103.303C80.9568 103.723 81.1404 104.591 80.7197 105.237ZM80.5615 105.134C80.9261 104.575 80.7683 103.825 80.2084 103.46C79.6482 103.095 78.8983 103.254 78.5337 103.814C78.1683 104.375 78.3276 105.124 78.8878 105.489C79.4477 105.854 80.1965 105.695 80.5615 105.134ZM80.4384 105.054C80.1179 105.547 79.4597 105.686 78.9679 105.365C78.4761 105.045 78.3369 104.387 78.6575 103.895C78.9776 103.403 79.6358 103.264 80.128 103.584C80.6195 103.904 80.7586 104.562 80.4384 105.054ZM80.2084 103.46C79.6482 103.095 78.8983 103.254 78.5337 103.813C78.1683 104.374 78.3276 105.124 78.8878 105.489C79.4477 105.853 80.1965 105.695 80.5615 105.134C80.9261 104.575 80.7683 103.825 80.2084 103.46ZM80.4384 105.054C80.1179 105.547 79.4597 105.686 78.9679 105.365C78.4761 105.045 78.3369 104.387 78.6575 103.895C78.9776 103.403 79.6358 103.264 80.128 103.584C80.6195 103.904 80.7586 104.562 80.4384 105.054ZM80.2084 103.46C79.6482 103.095 78.8983 103.254 78.5337 103.813C78.1683 104.374 78.3276 105.124 78.8878 105.489C79.4477 105.853 80.1965 105.695 80.5615 105.134C80.9261 104.575 80.7683 103.825 80.2084 103.46ZM80.4384 105.054C80.1179 105.547 79.4597 105.686 78.9679 105.365C78.4761 105.045 78.3369 104.387 78.6575 103.895C78.9776 103.403 79.6358 103.264 80.128 103.584C80.6195 103.904 80.7586 104.562 80.4384 105.054Z" fill="#DBDBDB"/>
<path d="M78.6245 106.791L77.8025 106.256L77.4692 106.867L78.2004 107.343L78.6245 106.791Z" fill="#DBDBDB"/>
<path d="M77.2404 105.495L77.0377 104.536L76.3693 104.732L76.55 105.586L77.2404 105.495Z" fill="#DBDBDB"/>
<path d="M77.1779 103.6L77.7131 102.778L77.1016 102.445L76.6255 103.176L77.1779 103.6Z" fill="#DBDBDB"/>
<path d="M78.4734 102.216L79.4331 102.013L79.2364 101.345L78.3829 101.526L78.4734 102.216Z" fill="#DBDBDB"/>
<path d="M80.3685 102.154L81.1902 102.689L81.5238 102.077L80.7926 101.601L80.3685 102.154Z" fill="#DBDBDB"/>
<path d="M81.7527 103.449L81.9554 104.409L82.6234 104.212L82.4431 103.359L81.7527 103.449Z" fill="#DBDBDB"/>
<path d="M81.8152 105.344L81.28 106.166L81.8915 106.499L82.3676 105.768L81.8152 105.344Z" fill="#DBDBDB"/>
<path d="M80.5196 106.728L79.5599 106.931L79.7563 107.599L80.6101 107.419L80.5196 106.728Z" fill="#DBDBDB"/>
<path d="M98.0703 113.708L99.2604 113.93L102.663 90.8813L101.308 90.6322L98.0703 113.708Z" fill="#084FFF"/>
<path d="M87.6458 110.056L89.413 94.6557L101.308 90.6322C101.308 90.6322 98.0703 113.957 98.0703 113.708L87.6458 110.056Z" fill="#084FFF"/>
<path opacity="0.4" d="M87.6458 110.056L89.413 94.6557L101.308 90.6322C101.308 90.6322 98.0703 113.957 98.0703 113.708L87.6458 110.056Z" fill="white"/>
<path d="M58.8175 95.2795C58.6238 94.0038 58.519 92.7176 58.4394 91.4303C58.4027 90.7862 58.3863 90.1415 58.3721 89.4967C58.3593 88.8519 58.3481 88.2064 58.3672 87.5613L58.3724 87.3918L58.5374 87.3829C60.9003 87.2561 63.2617 87.1009 65.6262 86.9976C67.9898 86.8809 70.3535 86.7751 72.7191 86.701C70.361 86.9146 68.0018 87.0964 65.6419 87.2677C63.2827 87.452 60.9209 87.5844 58.5606 87.7453L58.7303 87.5669L58.7206 89.493L58.7431 91.4198C58.7464 92.0627 58.758 92.7052 58.7767 93.3482L58.8175 95.2795Z" fill="white"/>
<path d="M91.072 94.8816C91.8088 94.5315 92.5572 94.2061 93.3145 93.9058C94.0696 93.5984 94.8315 93.3074 95.6023 93.0404C96.3742 92.7767 97.1488 92.5186 97.9364 92.2998C98.7226 92.0784 99.5162 91.8739 100.327 91.7411L100.526 91.7086L100.491 91.8989C100.304 92.896 100.109 93.8916 99.8782 94.8816C99.9646 93.8688 100.087 92.8612 100.217 91.8555L100.381 92.0134C99.5951 92.2007 98.8157 92.4199 98.0385 92.6495C97.2621 92.8818 96.4879 93.1264 95.716 93.3777L91.072 94.8816Z" fill="white"/>
<path opacity="0.1" d="M63.9649 86.2971L64.1654 90.1489L64.3367 94.0019L64.6336 101.709L64.8659 109.419L64.9586 113.274L65.0222 117.131L64.8214 113.279L64.6501 109.426L64.3535 101.719L64.122 94.0094L64.0289 90.1538L63.9649 86.2971Z" fill="black"/>
<path opacity="0.1" d="M62.8616 88.6189C62.9356 88.9506 62.7389 89.3463 62.3645 89.4563C62.1831 89.5109 61.9707 89.4929 61.7938 89.3919C61.6169 89.2913 61.4864 89.1081 61.4445 88.9046C61.4045 88.7008 61.4531 88.4809 61.5773 88.3197C61.7007 88.1577 61.8907 88.0586 62.0788 88.0388C62.467 87.9954 62.8014 88.2849 62.8616 88.6189ZM62.8616 88.6189C62.826 88.4513 62.7183 88.3014 62.5721 88.2206C62.4255 88.1398 62.2523 88.1297 62.1065 88.1772C61.8062 88.2748 61.6622 88.5908 61.719 88.8496C61.7665 89.1096 62.0216 89.3471 62.3369 89.3198C62.4894 89.3067 62.6454 89.2304 62.749 89.0987C62.853 88.9675 62.8937 88.7872 62.8616 88.6189Z" fill="black"/>
<path opacity="0.1" d="M63.1267 93.2374C63.2008 93.5691 63.004 93.9648 62.6297 94.0748C62.4483 94.1294 62.2358 94.1115 62.0589 94.0105C61.882 93.9099 61.7515 93.7266 61.7096 93.5232C61.6696 93.3193 61.7182 93.0994 61.8424 92.9382C61.9658 92.7763 62.1558 92.6772 62.3439 92.6573C62.7321 92.614 63.0665 92.9034 63.1267 93.2374ZM63.1267 93.2374C63.0912 93.0699 62.9835 92.9199 62.8372 92.8391C62.6906 92.7583 62.5175 92.7482 62.3716 92.7957C62.0713 92.8933 61.9273 93.2097 61.9841 93.4682C62.0316 93.7281 62.2867 93.9656 62.602 93.9383C62.7546 93.9252 62.9105 93.8485 63.0145 93.7173C63.1181 93.586 63.1593 93.4057 63.1267 93.2374Z" fill="black"/>
<path opacity="0.1" d="M63.295 98.1402C63.3691 98.4719 63.1724 98.8676 62.798 98.9776C62.6166 99.0322 62.4042 99.0142 62.2273 98.9132C62.0504 98.8126 61.9199 98.6294 61.878 98.4259C61.8379 98.2225 61.8866 98.0022 62.0107 97.841C62.1342 97.6787 62.3241 97.5799 62.5123 97.5601C62.9005 97.5167 63.2348 97.8062 63.295 98.1402ZM63.295 98.1402C63.2595 97.9726 63.1518 97.8227 63.0056 97.7419C62.859 97.6611 62.6858 97.651 62.5399 97.6985C62.2396 97.7961 62.0956 98.1121 62.1525 98.3706C62.2 98.6309 62.455 98.868 62.7703 98.8407C62.9229 98.8276 63.0789 98.7513 63.1825 98.6197C63.2864 98.4884 63.3272 98.3085 63.295 98.1402Z" fill="black"/>
<path opacity="0.1" d="M63.4633 103.043C63.5374 103.374 63.3407 103.77 62.9663 103.88C62.7849 103.935 62.5725 103.917 62.3956 103.816C62.2187 103.715 62.0881 103.532 62.0462 103.328C62.0062 103.124 62.0548 102.905 62.179 102.743C62.3024 102.581 62.492 102.482 62.6805 102.463C63.0688 102.419 63.4031 102.709 63.4633 103.043ZM63.4633 103.043C63.4278 102.875 63.3205 102.725 63.1738 102.644C63.0272 102.563 62.8541 102.553 62.7082 102.601C62.4079 102.699 62.2639 103.015 62.3208 103.273C62.3683 103.533 62.6233 103.771 62.9386 103.743C63.0912 103.73 63.2472 103.654 63.3508 103.522C63.4547 103.391 63.4955 103.211 63.4633 103.043Z" fill="black"/>
<path opacity="0.1" d="M63.6317 107.945C63.7057 108.277 63.509 108.673 63.1346 108.783C62.9532 108.837 62.7408 108.819 62.5639 108.718C62.387 108.618 62.2565 108.435 62.2146 108.231C62.1746 108.027 62.2232 107.807 62.3473 107.646C62.4708 107.484 62.6608 107.385 62.8489 107.365C63.2371 107.322 63.5714 107.611 63.6317 107.945ZM63.6317 107.945C63.5961 107.778 63.4884 107.628 63.3422 107.547C63.1956 107.466 63.0224 107.456 62.8765 107.504C62.5762 107.601 62.4322 107.917 62.4891 108.176C62.5366 108.436 62.7916 108.674 63.1069 108.646C63.2595 108.633 63.4155 108.557 63.5195 108.425C63.6231 108.294 63.6638 108.113 63.6317 107.945Z" fill="black"/>
<path opacity="0.1" d="M63.7999 112.848C63.874 113.18 63.6773 113.575 63.3029 113.685C63.1215 113.74 62.9091 113.722 62.7322 113.621C62.5553 113.52 62.4247 113.337 62.3828 113.134C62.3428 112.93 62.3914 112.71 62.5156 112.549C62.639 112.386 62.8287 112.288 63.0171 112.268C63.4054 112.224 63.7393 112.514 63.7999 112.848ZM63.7999 112.848C63.7644 112.68 63.6567 112.53 63.5105 112.449C63.3638 112.369 63.1907 112.359 63.0448 112.406C62.7445 112.504 62.6005 112.82 62.6574 113.079C62.7049 113.339 62.9599 113.576 63.2752 113.549C63.4278 113.536 63.5838 113.459 63.6874 113.328C63.7913 113.196 63.8321 113.016 63.7999 112.848Z" fill="black"/>
<path d="M65.3134 120.345L47.7822 125.657L48.4029 127.705L65.9341 122.393L65.3134 120.345Z" fill="#084FFF"/>
<path opacity="0.4" d="M65.3134 120.345L47.7822 125.657L48.4029 127.705L65.9341 122.393L65.3134 120.345Z" fill="white"/>
<path d="M56.9255 122.191L54.8857 122.84L55.8494 125.87L57.8892 125.221L56.9255 122.191Z" fill="#084FFF"/>
<path d="M48.2659 130.706L43.742 111.117L30.0872 114.354L36.811 133.445L48.2659 130.706Z" fill="#084FFF"/>
<path d="M51.2956 129.71L48.2659 130.706L43.7419 111.117L48.0998 112.154L51.2956 129.71Z" fill="#084FFF"/>
<path opacity="0.2" d="M51.2956 129.71L48.2659 130.706L43.7419 111.117L48.0998 112.154L51.2956 129.71Z" fill="black"/>
<path d="M65.6314 123.692C66.9149 123.692 67.9554 122.651 67.9554 121.368C67.9554 120.084 66.9149 119.044 65.6314 119.044C64.3479 119.044 63.3074 120.084 63.3074 121.368C63.3074 122.651 64.3479 123.692 65.6314 123.692Z" fill="#084FFF"/>
<path d="M89.5461 120.288L88.9211 122.335L106.441 127.684L107.066 125.637L89.5461 120.288Z" fill="#084FFF"/>
<path opacity="0.4" d="M89.5461 120.288L88.9211 122.335L106.441 127.684L107.066 125.637L89.5461 120.288Z" fill="white"/>
<path d="M97.9462 122.143L96.9758 125.171L99.0141 125.824L99.9845 122.796L97.9462 122.143Z" fill="#084FFF"/>
<path d="M106.584 130.689L111.149 111.109L124.797 114.376L118.033 133.453L106.584 130.689Z" fill="#084FFF"/>
<path d="M103.556 129.687L106.584 130.689L111.149 111.109L106.789 112.138L103.556 129.687Z" fill="#084FFF"/>
<path opacity="0.2" d="M103.556 129.687L106.584 130.689L111.149 111.109L106.789 112.138L103.556 129.687Z" fill="black"/>
<path d="M86.9139 121.309C86.9113 122.593 87.9495 123.635 89.2331 123.638C90.5166 123.641 91.5593 122.603 91.5623 121.319C91.5649 120.036 90.5267 118.993 89.2432 118.99C87.9592 118.987 86.9165 120.026 86.9139 121.309Z" fill="#084FFF"/>
<path d="M104.454 97.1469C104.509 97.0953 110.14 91.8723 116.764 93.6589C123.538 95.4867 129.131 105.689 129.186 105.793L131.069 104.775C130.824 104.322 124.991 93.6582 117.321 91.593C109.521 89.4892 103.243 95.3457 102.979 95.5963L104.454 97.1469Z" fill="#084FFF"/>
<path opacity="0.4" d="M104.454 97.1469C104.509 97.0953 110.14 91.8723 116.764 93.6589C123.538 95.4867 129.131 105.689 129.186 105.793L131.069 104.775C130.824 104.322 124.991 93.6582 117.321 91.593C109.521 89.4892 103.243 95.3457 102.979 95.5963L104.454 97.1469Z" fill="white"/>
<path d="M126.69 116.064L130.747 113.922C130.357 113.185 129.878 111.918 129.808 110.774C129.718 109.291 130.306 108.77 130.955 108.427C132.377 107.676 133.225 107.974 133.804 108.315C134.617 108.795 135.443 109.777 136.131 111.08L140.188 108.938C139.078 106.836 137.714 105.297 136.136 104.365C134.561 103.437 132.012 102.682 128.814 104.371C126.321 105.687 125.048 108.06 125.23 111.052C125.373 113.407 126.384 115.483 126.69 116.064Z" fill="#084FFF"/>
<path d="M105.309 89.9997C106.188 89.3923 107.088 88.8201 107.991 88.2531C108.892 87.6828 109.808 87.1375 110.724 86.5922C111.645 86.0548 112.565 85.5181 113.501 85.0061L114.905 84.2394C115.38 83.9955 115.848 83.7408 116.329 83.5067C115.892 83.8138 115.442 84.0999 114.998 84.3972L113.647 85.2537C112.746 85.824 111.831 86.3693 110.914 86.9138C109.993 87.4509 109.073 87.9876 108.137 88.4992C107.203 89.0154 106.267 89.5251 105.309 89.9997Z" fill="#263238"/>
<path d="M102.979 98.7517C104.238 99.469 105.432 100.279 106.609 101.111C107.78 101.952 108.934 102.817 110.021 103.774C108.762 103.058 107.569 102.248 106.392 101.415C105.222 100.573 104.068 99.7088 102.979 98.7517Z" fill="#263238"/>
<path d="M105.047 97.6754C106.019 97.9704 106.976 98.304 107.93 98.6433C108.886 98.9784 109.831 99.3411 110.776 99.7039C111.718 100.075 112.66 100.447 113.591 100.845L114.988 101.445C115.448 101.657 115.914 101.857 116.37 102.081C115.883 101.937 115.404 101.77 114.921 101.615L113.487 101.114C112.531 100.778 111.586 100.416 110.641 100.052C109.699 99.6811 108.757 99.3093 107.826 98.9103C106.893 98.515 105.963 98.1144 105.047 97.6754Z" fill="#263238"/>
<path d="M107.808 90.8207C108.739 90.5787 109.677 90.3771 110.617 90.1815C111.555 89.9818 112.499 89.8112 113.442 89.6403C114.388 89.4784 115.333 89.3172 116.283 89.1844L117.709 88.9866C118.187 88.9342 118.662 88.8691 119.142 88.828C118.677 88.9529 118.208 89.0539 117.741 89.1672L116.333 89.4675C115.394 89.6669 114.451 89.8378 113.507 90.008C112.562 90.1692 111.617 90.3307 110.666 90.4631C109.717 90.6004 108.766 90.7309 107.808 90.8207Z" fill="#263238"/>
<path d="M85.3648 96.6438C85.5226 95.8872 85.7766 95.1496 86.105 94.4465C86.4337 93.7441 86.8361 93.0706 87.341 92.4718C87.8474 91.8794 88.4705 91.3569 89.2204 91.0678C89.9702 90.7884 90.8286 90.7907 91.5807 91.091C92.3418 91.3876 92.942 92.0271 93.2656 92.7624C93.4335 93.1297 93.5386 93.5235 93.582 93.9263C93.6197 94.3283 93.6036 94.7465 93.4436 95.1481C93.362 95.3456 93.2345 95.545 93.0303 95.6777C92.9316 95.7466 92.8108 95.7858 92.6922 95.8041C92.5755 95.821 92.4558 95.8157 92.3197 95.7686C92.0695 95.662 91.9442 95.4608 91.8365 95.2794C91.7404 95.0909 91.6663 94.8979 91.6158 94.7031C91.4057 93.9225 91.3843 93.1285 91.4214 92.3435C91.5328 90.7798 91.9435 89.2158 92.7861 87.8701C93.2113 87.2051 93.7446 86.5929 94.4077 86.1456C95.0622 85.6953 95.8286 85.3853 96.611 85.2955C96.9958 85.2024 97.3934 85.211 97.7865 85.1919C97.9836 85.1709 98.1792 85.2188 98.3755 85.2289C98.5704 85.2547 98.7701 85.2514 98.9597 85.3078C99.7369 85.4473 100.467 85.7592 101.149 86.1366C101.828 86.5274 102.432 87.0294 102.983 87.5739C103.529 88.1241 104.026 88.7258 104.426 89.3885C103.541 88.1263 102.402 87.0305 101.06 86.2967C100.384 85.9455 99.6699 85.6571 98.9178 85.5405C98.7342 85.4892 98.5416 85.4982 98.3538 85.4773C98.1649 85.4716 97.9768 85.4286 97.7876 85.4541C97.4102 85.4817 97.0302 85.4799 96.6618 85.579C95.9079 85.6852 95.2085 85.9885 94.5929 86.4111C93.9743 86.8345 93.4754 87.4153 93.0744 88.0511C92.2804 89.3373 91.8915 90.8565 91.7946 92.366C91.7523 93.1203 91.7714 93.8915 91.9599 94.6081C92.0501 94.9507 92.212 95.3366 92.448 95.4447C92.4783 95.4477 92.4985 95.4638 92.5351 95.4649C92.5718 95.4619 92.6111 95.4702 92.6458 95.4612C92.7169 95.4496 92.7861 95.4305 92.8455 95.3879C92.9682 95.3108 93.0655 95.174 93.1309 95.0169C93.2622 94.699 93.2861 94.322 93.2532 93.9588C93.2166 93.5934 93.1231 93.2306 92.972 92.894C92.6761 92.2212 92.1514 91.64 91.4715 91.355C90.7953 91.0678 90.0035 91.0446 89.3015 91.2888C88.5962 91.542 87.9869 92.0282 87.479 92.5919C86.4599 93.7326 85.7728 95.1594 85.3648 96.6438Z" fill="#263238"/>
<path d="M50.8053 106.336C51.1662 105.656 51.6969 105.067 52.3166 104.602C52.9356 104.137 53.6462 103.776 54.411 103.599C55.1718 103.417 55.9889 103.414 56.75 103.645C57.5115 103.873 58.1974 104.319 58.7464 104.888C59.2992 105.457 59.7125 106.147 59.9964 106.881C60.275 107.617 60.4422 108.405 60.3831 109.211C60.343 109.607 60.2626 110.036 59.9488 110.379C59.7933 110.547 59.5532 110.659 59.3187 110.662C59.0935 110.66 58.8807 110.627 58.6743 110.517C58.4689 110.411 58.3044 110.227 58.2105 110.023C58.1151 109.819 58.0796 109.604 58.0699 109.395C58.0549 108.976 58.1454 108.578 58.2685 108.2C58.5194 107.442 58.9316 106.759 59.4133 106.14C59.8976 105.521 60.4676 104.971 61.1064 104.512C62.3735 103.592 63.9877 103.081 65.5622 103.287C66.3394 103.392 67.1106 103.617 67.7909 104.013C68.4772 104.396 69.0722 104.929 69.5573 105.537C70.042 106.148 70.4197 106.834 70.7107 107.549C71.0017 108.264 71.2164 109.011 71.3218 109.773C71.0077 108.275 70.3913 106.819 69.4096 105.658C68.9234 105.077 68.3373 104.579 67.6723 104.228C67.013 103.864 66.2732 103.669 65.5286 103.585C64.0326 103.423 62.5149 103.899 61.308 104.793C60.1026 105.679 59.1163 106.917 58.6178 108.317C58.5004 108.666 58.4184 109.031 58.4293 109.382C58.4375 109.731 58.5602 110.066 58.8403 110.208C58.9723 110.284 59.1515 110.313 59.3078 110.316C59.4593 110.312 59.5939 110.251 59.702 110.14C59.9204 109.912 60.0139 109.539 60.0472 109.182C60.1059 108.451 59.9548 107.695 59.6934 106.997C59.4286 106.297 59.0352 105.644 58.5265 105.097C58.019 104.552 57.3795 104.126 56.6719 103.895C55.9654 103.659 55.1908 103.64 54.4548 103.796C52.9824 104.109 51.618 105.03 50.8053 106.336Z" fill="#263238"/>
<path d="M116.088 35.5262C114.582 35.2083 112.999 35.1642 111.519 35.5457C110.785 35.7386 110.073 36.0569 109.524 36.5674C108.986 37.0791 108.643 37.7934 108.588 38.5261C108.529 39.2606 108.805 39.9936 109.267 40.5651C109.497 40.8538 109.776 41.1033 110.084 41.3034C110.391 41.4994 110.738 41.6512 111.08 41.6804C111.25 41.6942 111.416 41.6707 111.541 41.597C111.606 41.5637 111.654 41.511 111.697 41.4534C111.721 41.4264 111.732 41.3879 111.752 41.3569C111.767 41.324 111.762 41.2985 111.774 41.2705C111.786 41.0113 111.517 40.69 111.254 40.4533C110.704 39.9574 110.027 39.5864 109.338 39.2782C107.952 38.6723 106.424 38.3207 104.916 38.4363C104.168 38.5006 103.422 38.6779 102.763 39.0332C102.105 39.3863 101.515 39.8687 101.074 40.4899C100.817 40.7719 100.645 41.1104 100.447 41.4328C100.338 41.5895 100.29 41.7761 100.208 41.9467C100.14 42.1232 100.044 42.29 100.006 42.4766C99.7646 43.1984 99.6931 43.9651 99.6954 44.7266C99.7316 46.2563 100.183 47.771 100.899 49.1361C100.493 48.4775 100.186 47.7597 99.9482 47.0218C99.7174 46.2821 99.5484 45.5154 99.5121 44.7333C99.4897 43.9543 99.5473 43.1618 99.7799 42.4074C99.8166 42.213 99.9112 42.0372 99.9777 41.852C100.059 41.6729 100.106 41.4769 100.215 41.3116C100.412 40.9713 100.587 40.6137 100.846 40.3145C101.285 39.6604 101.912 39.1218 102.612 38.7467C103.313 38.3626 104.102 38.1696 104.888 38.0967C106.47 37.9654 108.049 38.3177 109.489 38.936C110.204 39.2628 110.899 39.6462 111.497 40.1911C111.647 40.3254 111.784 40.4798 111.908 40.6519C112.019 40.8303 112.141 41.0341 112.121 41.3053C112.1 41.4477 112.05 41.5566 111.981 41.6527C111.911 41.7496 111.82 41.839 111.714 41.8951C111.503 42.0155 111.267 42.0375 111.054 42.0192C110.624 41.9773 110.245 41.8001 109.904 41.582C109.566 41.3587 109.265 41.0846 109.015 40.7671C108.51 40.1425 108.217 39.3156 108.303 38.5036C108.381 37.6977 108.773 36.9336 109.365 36.3954C109.965 35.8617 110.716 35.5479 111.474 35.3695C112.238 35.1956 113.021 35.147 113.796 35.1769C114.572 35.2068 115.343 35.3194 116.088 35.5262Z" fill="#263238"/>
<path d="M84.0089 41.0048C83.7531 40.1188 83.7187 39.1711 83.8627 38.2559C84.0059 37.3408 84.316 36.4405 84.8224 35.6522C85.3213 34.863 86.0173 34.1805 86.8591 33.7455C87.6988 33.3072 88.6555 33.1168 89.5972 33.1456C90.5416 33.171 91.4698 33.4156 92.3244 33.8053C93.1753 34.2007 93.9749 34.7347 94.5938 35.4693C94.8889 35.8392 95.1739 36.2704 95.1911 36.8119C95.1986 37.0793 95.0901 37.3651 94.8983 37.5588C94.7083 37.7406 94.5007 37.8883 94.2393 37.9642C93.982 38.0431 93.6959 38.0237 93.4509 37.9302C93.2044 37.8374 92.9969 37.6852 92.817 37.5169C92.4583 37.1751 92.2044 36.7614 91.9945 36.3366C91.5779 35.482 91.3588 34.5552 91.2533 33.6251C91.1504 32.6934 91.177 31.7476 91.3389 30.8234C91.6516 28.9804 92.6016 27.2005 94.1144 26.0605C94.8643 25.5007 95.7084 25.0474 96.6194 24.8166C97.5245 24.5694 98.4767 24.5257 99.3997 24.6382C100.325 24.7527 101.222 25.0208 102.071 25.387C102.919 25.7535 103.73 26.2105 104.461 26.7715C102.942 25.7438 101.195 25.0077 99.3788 24.8282C98.4748 24.7362 97.5526 24.7979 96.6849 25.0534C95.8116 25.2927 95.0101 25.7449 94.2988 26.2977C93.5956 26.8605 92.9972 27.5528 92.56 28.3401C92.1191 29.1255 91.8311 29.9935 91.6789 30.8829C91.3875 32.6587 91.5757 34.55 92.3255 36.1758C92.5189 36.5756 92.7556 36.9597 93.0646 37.2562C93.3675 37.5517 93.7673 37.7454 94.1417 37.6269C94.3257 37.579 94.5067 37.4522 94.6481 37.3183C94.7805 37.1826 94.8493 37.0068 94.847 36.8134C94.8422 36.4207 94.6054 36.0202 94.3324 35.6832C93.7658 35.0025 93.0002 34.4808 92.1879 34.1001C91.3711 33.7212 90.4832 33.4897 89.586 33.4489C88.6899 33.4078 87.7811 33.5802 86.9773 33.9785C86.1717 34.3727 85.4903 35.0089 84.9906 35.7621C83.9928 37.2708 83.6016 39.207 84.0089 41.0048Z" fill="#263238"/>
<path d="M49.555 106.418C48.7169 106.154 47.8242 106.619 47.5601 107.457C47.2957 108.296 47.7613 109.188 48.5995 109.452C49.4368 109.716 50.3288 109.251 50.5929 108.413C50.8569 107.576 50.3924 106.682 49.555 106.418ZM50.4085 108.354C50.1766 109.091 49.3927 109.499 48.6574 109.267C47.9218 109.036 47.5134 108.252 47.7456 107.516C47.9775 106.78 48.761 106.372 49.4974 106.604C50.232 106.835 50.6404 107.619 50.4085 108.354ZM49.555 106.418C48.7169 106.154 47.8242 106.619 47.5601 107.457C47.2957 108.296 47.7613 109.188 48.5995 109.452C49.4368 109.716 50.3288 109.251 50.5929 108.413C50.8569 107.576 50.3924 106.682 49.555 106.418ZM50.4085 108.354C50.1766 109.091 49.3927 109.499 48.6574 109.267C47.9218 109.036 47.5134 108.252 47.7456 107.516C47.9775 106.78 48.761 106.372 49.4974 106.604C50.232 106.835 50.6404 107.619 50.4085 108.354ZM49.555 106.418C48.7169 106.154 47.8242 106.619 47.5601 107.457C47.2957 108.296 47.7613 109.188 48.5995 109.452C49.4368 109.716 50.3288 109.251 50.5929 108.413C50.8569 107.576 50.3924 106.682 49.555 106.418ZM50.4085 108.354C50.1766 109.091 49.3927 109.499 48.6574 109.267C47.9218 109.036 47.5134 108.252 47.7456 107.516C47.9775 106.78 48.761 106.372 49.4974 106.604C50.232 106.835 50.6404 107.619 50.4085 108.354ZM50.085 104.738C48.3178 104.181 46.4362 105.163 45.8797 106.928C45.3236 108.693 46.3035 110.576 48.0695 111.132C49.834 111.688 51.7171 110.708 52.2733 108.942C52.8301 107.178 51.8499 105.294 50.085 104.738ZM50.8292 108.487C50.5244 109.454 49.4911 109.993 48.525 109.688C47.559 109.384 47.0201 108.35 47.3249 107.383C47.6297 106.416 48.6638 105.879 49.6298 106.183C50.5951 106.487 51.1337 107.521 50.8292 108.487ZM50.5929 108.413C50.8569 107.575 50.3924 106.682 49.555 106.418C48.7169 106.154 47.8242 106.619 47.5601 107.457C47.2957 108.295 47.7613 109.187 48.5995 109.452C49.4368 109.716 50.3288 109.251 50.5929 108.413ZM50.4085 108.354C50.1766 109.091 49.3927 109.499 48.6574 109.267C47.9218 109.036 47.5134 108.252 47.7456 107.516C47.9775 106.78 48.761 106.372 49.4974 106.604C50.232 106.835 50.6404 107.619 50.4085 108.354ZM49.555 106.418C48.7169 106.154 47.8242 106.619 47.5601 107.457C47.2957 108.296 47.7613 109.188 48.5995 109.452C49.4368 109.716 50.3288 109.251 50.5929 108.413C50.8569 107.576 50.3924 106.682 49.555 106.418ZM50.4085 108.354C50.1766 109.091 49.3927 109.499 48.6574 109.267C47.9218 109.036 47.5134 108.252 47.7456 107.516C47.9775 106.78 48.761 106.372 49.4974 106.604C50.232 106.835 50.6404 107.619 50.4085 108.354ZM49.555 106.418C48.7169 106.154 47.8242 106.619 47.5601 107.457C47.2957 108.296 47.7613 109.188 48.5995 109.452C49.4368 109.716 50.3288 109.251 50.5929 108.413C50.8569 107.576 50.3924 106.682 49.555 106.418ZM50.4085 108.354C50.1766 109.091 49.3927 109.499 48.6574 109.267C47.9218 109.036 47.5134 108.252 47.7456 107.516C47.9775 106.78 48.761 106.372 49.4974 106.604C50.232 106.835 50.6404 107.619 50.4085 108.354Z" fill="#455A64"/>
<path d="M48.7259 111.193L47.4965 110.806L47.2905 111.697L48.3837 112.042L48.7259 111.193Z" fill="#455A64"/>
<path d="M46.5167 110.042L45.9213 108.898L45.1452 109.383L45.6744 110.4L46.5167 110.042Z" fill="#455A64"/>
<path d="M45.7686 107.665L46.1561 106.436L45.2645 106.23L44.92 107.323L45.7686 107.665Z" fill="#455A64"/>
<path d="M46.9202 105.456L48.0631 104.861L47.5784 104.084L46.5619 104.614L46.9202 105.456Z" fill="#455A64"/>
<path d="M49.2962 104.708L50.5255 105.095L50.732 104.204L49.6384 103.859L49.2962 104.708Z" fill="#455A64"/>
<path d="M51.5054 105.859L52.1008 107.002L52.8773 106.518L52.3477 105.501L51.5054 105.859Z" fill="#455A64"/>
<path d="M52.2538 108.236L51.8663 109.465L52.758 109.671L53.1024 108.578L52.2538 108.236Z" fill="#455A64"/>
<path d="M51.1022 110.445L49.9589 111.04L50.4436 111.817L51.4605 111.287L51.1022 110.445Z" fill="#455A64"/>
<path d="M111.564 95.732C113.25 93.4603 112.775 90.2511 110.504 88.5654C108.231 86.8791 105.022 87.354 103.336 89.6253C101.65 91.8978 102.125 95.1071 104.397 96.7934C106.669 98.4794 109.878 98.0048 111.564 95.732ZM109.372 94.1047C108.584 95.1665 107.086 95.3883 106.025 94.601C104.963 93.813 104.741 92.3151 105.529 91.253C106.316 90.192 107.815 89.9702 108.876 90.7582C109.937 91.5458 110.159 93.0437 109.372 94.1047Z" fill="#263238"/>
<path d="M105.314 97.2093L103.732 96.0353L102.989 97.2202L104.396 98.2644L105.314 97.2093Z" fill="#263238"/>
<path d="M102.699 94.4417L102.41 92.4928L101.047 92.8047L101.303 94.5382L102.699 94.4417Z" fill="#263238"/>
<path d="M102.806 90.6352L103.981 89.0531L102.796 88.3096L101.752 89.7166L102.806 90.6352Z" fill="#263238"/>
<path d="M105.574 88.0198L107.523 87.731L107.211 86.3674L105.478 86.624L105.574 88.0198Z" fill="#263238"/>
<path d="M109.381 88.1271L110.963 89.3015L111.706 88.1167L110.299 87.0724L109.381 88.1271Z" fill="#263238"/>
<path d="M111.996 90.8951L112.285 92.844L113.648 92.5321L113.392 90.7986L111.996 90.8951Z" fill="#263238"/>
<path d="M111.889 94.7017L110.715 96.2837L111.899 97.0272L112.944 95.6202L111.889 94.7017Z" fill="#263238"/>
<path d="M109.121 97.317L107.172 97.6054L107.484 98.969L109.217 98.7128L109.121 97.317Z" fill="#263238"/>
<path d="M105.615 92.9247L106.703 94.2973L108.437 94.04L109.08 92.412L107.993 91.0402L106.259 91.296L105.615 92.9247ZM107.678 92.2224C107.925 92.4056 107.976 92.7523 107.793 92.9992C107.61 93.2449 107.263 93.2973 107.016 93.114C106.77 92.9315 106.719 92.5829 106.901 92.3372C107.084 92.0907 107.432 92.0402 107.678 92.2224Z" fill="#263238"/>
<path d="M108.834 19.819C108.1 19.5878 107.319 19.9951 107.088 20.7278C106.857 21.462 107.264 22.2425 107.998 22.4736C108.73 22.7048 109.511 22.2979 109.742 21.5644C109.973 20.8318 109.566 20.0497 108.834 19.819ZM109.581 21.5132C109.378 22.1576 108.692 22.5148 108.048 22.3121C107.404 22.1094 107.047 21.4234 107.25 20.779C107.453 20.1354 108.139 19.7782 108.783 19.9809C109.426 20.1836 109.784 20.8695 109.581 21.5132ZM108.834 19.819C108.1 19.5878 107.319 19.9951 107.088 20.7278C106.857 21.462 107.264 22.2425 107.998 22.4736C108.73 22.7048 109.511 22.2979 109.742 21.5644C109.973 20.8318 109.566 20.0497 108.834 19.819ZM109.581 21.5132C109.378 22.1576 108.692 22.5148 108.048 22.3121C107.404 22.1094 107.047 21.4234 107.25 20.779C107.453 20.1354 108.139 19.7782 108.783 19.9809C109.426 20.1836 109.784 20.8695 109.581 21.5132ZM108.834 19.819C108.1 19.5878 107.319 19.9951 107.088 20.7278C106.857 21.462 107.264 22.2425 107.998 22.4736C108.73 22.7048 109.511 22.2979 109.742 21.5644C109.973 20.8318 109.566 20.0497 108.834 19.819ZM109.581 21.5132C109.378 22.1576 108.692 22.5148 108.048 22.3121C107.404 22.1094 107.047 21.4234 107.25 20.779C107.453 20.1354 108.139 19.7782 108.783 19.9809C109.426 20.1836 109.784 20.8695 109.581 21.5132ZM109.298 18.3488C107.752 17.8618 106.105 18.7209 105.618 20.2648C105.132 21.8094 105.989 23.4573 107.534 23.9438C109.079 24.4304 110.726 23.5724 111.213 22.0274C111.7 20.4836 110.842 18.835 109.298 18.3488ZM109.949 21.6291C109.682 22.4751 108.778 22.9467 107.932 22.6801C107.087 22.4134 106.616 21.5091 106.882 20.6631C107.149 19.8171 108.054 19.3462 108.899 19.6129C109.744 19.8792 110.215 20.7835 109.949 21.6291ZM109.742 21.5644C109.973 20.8318 109.567 20.0497 108.834 19.819C108.101 19.5878 107.319 19.9951 107.088 20.7278C106.857 21.462 107.264 22.2425 107.998 22.4736C108.731 22.7044 109.511 22.2979 109.742 21.5644ZM109.581 21.5132C109.378 22.1576 108.692 22.5148 108.048 22.3121C107.404 22.1094 107.047 21.4234 107.25 20.779C107.453 20.1354 108.139 19.7782 108.783 19.9809C109.426 20.1836 109.784 20.8695 109.581 21.5132ZM108.834 19.819C108.1 19.5878 107.319 19.9951 107.088 20.7278C106.857 21.462 107.264 22.2425 107.998 22.4736C108.73 22.7048 109.511 22.2979 109.742 21.5644C109.973 20.8318 109.566 20.0497 108.834 19.819ZM109.581 21.5132C109.378 22.1576 108.692 22.5148 108.048 22.3121C107.404 22.1094 107.047 21.4234 107.25 20.779C107.453 20.1354 108.139 19.7782 108.783 19.9809C109.426 20.1836 109.784 20.8695 109.581 21.5132ZM108.834 19.819C108.1 19.5878 107.319 19.9951 107.088 20.7278C106.857 21.462 107.264 22.2425 107.998 22.4736C108.73 22.7048 109.511 22.2979 109.742 21.5644C109.973 20.8318 109.566 20.0497 108.834 19.819ZM109.581 21.5132C109.378 22.1576 108.692 22.5148 108.048 22.3121C107.404 22.1094 107.047 21.4234 107.25 20.779C107.453 20.1354 108.139 19.7782 108.783 19.9809C109.426 20.1836 109.784 20.8695 109.581 21.5132Z" fill="#263238"/>
<path d="M108.108 23.9969L107.033 23.6581L106.852 24.4382L107.809 24.7397L108.108 23.9969Z" fill="#263238"/>
<path d="M106.175 22.9894L105.654 21.9893L104.975 22.4131L105.438 23.3028L106.175 22.9894Z" fill="#263238"/>
<path d="M105.521 20.9099L105.86 19.8343L105.08 19.6541L104.778 20.6107L105.521 20.9099Z" fill="#263238"/>
<path d="M106.528 18.9767L107.529 18.4557L107.104 17.7766L106.215 18.2399L106.528 18.9767Z" fill="#263238"/>
<path d="M108.608 18.3222L109.683 18.6611L109.864 17.8809L108.907 17.5795L108.608 18.3222Z" fill="#263238"/>
<path d="M110.541 19.3298L111.062 20.3302L111.741 19.9061L111.277 19.0164L110.541 19.3298Z" fill="#263238"/>
<path d="M111.195 21.4092L110.856 22.4849L111.637 22.6655L111.938 21.7088L111.195 21.4092Z" fill="#263238"/>
<path d="M110.188 23.3424L109.188 23.8634L109.611 24.5426L110.501 24.0792L110.188 23.3424Z" fill="#263238"/>
<path d="M101.112 49.3998C100.379 49.1687 99.5977 49.5759 99.3666 50.3086C99.1354 51.0428 99.5427 51.8233 100.276 52.0544C101.009 52.2856 101.789 51.8787 102.02 51.1452C102.251 50.4126 101.845 49.6305 101.112 49.3998ZM101.859 51.094C101.656 51.7384 100.97 52.0956 100.327 51.8929C99.683 51.6902 99.3258 51.0042 99.5285 50.3598C99.7312 49.7162 100.417 49.359 101.062 49.5617C101.704 49.7644 102.062 50.4504 101.859 51.094ZM101.112 49.3998C100.379 49.1687 99.5977 49.5759 99.3666 50.3086C99.1354 51.0428 99.5427 51.8233 100.276 52.0544C101.009 52.2856 101.789 51.8787 102.02 51.1452C102.251 50.4126 101.845 49.6305 101.112 49.3998ZM101.859 51.094C101.656 51.7384 100.97 52.0956 100.327 51.8929C99.683 51.6902 99.3258 51.0042 99.5285 50.3598C99.7312 49.7162 100.417 49.359 101.062 49.5617C101.704 49.7644 102.062 50.4504 101.859 51.094ZM101.112 49.3998C100.379 49.1687 99.5977 49.5759 99.3666 50.3086C99.1354 51.0428 99.5427 51.8233 100.276 52.0544C101.009 52.2856 101.789 51.8787 102.02 51.1452C102.251 50.4126 101.845 49.6305 101.112 49.3998ZM101.859 51.094C101.656 51.7384 100.97 52.0956 100.327 51.8929C99.683 51.6902 99.3258 51.0042 99.5285 50.3598C99.7312 49.7162 100.417 49.359 101.062 49.5617C101.704 49.7644 102.062 50.4504 101.859 51.094ZM101.576 47.9296C100.03 47.4426 98.3833 48.3017 97.8964 49.8456C97.4098 51.3906 98.267 53.0381 99.8128 53.5246C101.357 54.0112 103.004 53.1533 103.491 51.6083C103.978 50.0644 103.12 48.4158 101.576 47.9296ZM102.227 51.2099C101.961 52.0559 101.056 52.5275 100.211 52.2609C99.3654 51.9946 98.8938 51.0899 99.1605 50.2439C99.4272 49.3979 100.332 48.927 101.177 49.1937C102.022 49.46 102.494 50.3643 102.227 51.2099ZM102.02 51.1452C102.251 50.4126 101.845 49.6305 101.112 49.3998C100.379 49.1687 99.5977 49.5759 99.3666 50.3086C99.1354 51.0428 99.5427 51.8233 100.276 52.0544C101.009 52.2856 101.789 51.8787 102.02 51.1452ZM101.859 51.094C101.656 51.7384 100.97 52.0956 100.327 51.8929C99.683 51.6902 99.3258 51.0042 99.5285 50.3598C99.7312 49.7162 100.417 49.359 101.062 49.5617C101.704 49.7644 102.062 50.4504 101.859 51.094ZM101.112 49.3998C100.379 49.1687 99.5977 49.5759 99.3666 50.3086C99.1354 51.0428 99.5427 51.8233 100.276 52.0544C101.009 52.2856 101.789 51.8787 102.02 51.1452C102.251 50.4126 101.845 49.6305 101.112 49.3998ZM101.859 51.094C101.656 51.7384 100.97 52.0956 100.327 51.8929C99.683 51.6902 99.3258 51.0042 99.5285 50.3598C99.7312 49.7162 100.417 49.359 101.062 49.5617C101.704 49.7644 102.062 50.4504 101.859 51.094ZM101.112 49.3998C100.379 49.1687 99.5977 49.5759 99.3666 50.3086C99.1354 51.0428 99.5427 51.8233 100.276 52.0544C101.009 52.2856 101.789 51.8787 102.02 51.1452C102.251 50.4126 101.845 49.6305 101.112 49.3998ZM101.859 51.094C101.656 51.7384 100.97 52.0956 100.327 51.8929C99.683 51.6902 99.3258 51.0042 99.5285 50.3598C99.7312 49.7162 100.417 49.359 101.062 49.5617C101.704 49.7644 102.062 50.4504 101.859 51.094Z" fill="#263238"/>
<path d="M100.387 53.5777L99.3109 53.2389L99.1306 54.0191L100.087 54.3205L100.387 53.5777Z" fill="#263238"/>
<path d="M98.4533 52.5702L97.9327 51.5701L97.2531 51.9939L97.7165 52.8836L98.4533 52.5702Z" fill="#263238"/>
<path d="M97.7988 50.4908L98.138 49.4151L97.3578 49.2349L97.0564 50.1916L97.7988 50.4908Z" fill="#263238"/>
<path d="M98.8063 48.5575L99.8068 48.0369L99.3827 47.3574L98.4929 47.8207L98.8063 48.5575Z" fill="#263238"/>
<path d="M100.886 47.903L101.961 48.2423L102.142 47.4621L101.185 47.1606L100.886 47.903Z" fill="#263238"/>
<path d="M102.819 48.9106L103.34 49.911L104.019 49.4869L103.556 48.5972L102.819 48.9106Z" fill="#263238"/>
<path d="M103.473 50.9901L103.135 52.0657L103.915 52.2463L104.216 51.2896L103.473 50.9901Z" fill="#263238"/>
<path d="M102.466 52.9232L101.466 53.4442L101.89 54.1234L102.779 53.66L102.466 52.9232Z" fill="#263238"/>
<path d="M53.7635 36.7078C53.7212 35.1688 53.3947 33.6193 52.6785 32.2691C52.3198 31.6004 51.8441 30.9826 51.2195 30.5686C50.5961 30.1639 49.8219 29.9975 49.0967 30.1149C48.3685 30.2293 47.7204 30.6688 47.2723 31.2511C47.0453 31.5421 46.8677 31.8716 46.745 32.2179C46.6261 32.5627 46.5595 32.9345 46.6111 33.2744C46.6369 33.4424 46.6986 33.5983 46.7996 33.7027C46.8475 33.7584 46.9099 33.7932 46.9761 33.8216C47.0079 33.8384 47.0479 33.8399 47.0827 33.8515C47.1186 33.859 47.1418 33.8482 47.1721 33.8527C47.4268 33.804 47.6766 33.4678 47.8457 33.1566C48.1999 32.5059 48.4026 31.7612 48.5413 31.0189C48.8072 29.53 48.7923 27.9618 48.3281 26.5234C48.091 25.8102 47.7447 25.1269 47.245 24.5685C46.748 24.0112 46.1414 23.5497 45.4345 23.2666C45.1005 23.0826 44.731 22.9939 44.3712 22.8765C44.1936 22.8069 44.0006 22.8039 43.8158 22.7639C43.6285 22.7396 43.4437 22.685 43.253 22.6906C42.4949 22.6244 41.7326 22.734 40.9925 22.9139C39.5133 23.3062 38.146 24.0984 36.9858 25.113C37.5319 24.5651 38.158 24.0991 38.8199 23.6952C39.4853 23.298 40.1914 22.955 40.9431 22.737C41.6952 22.5332 42.4795 22.4045 43.2672 22.4546C43.465 22.4449 43.6576 22.4961 43.8532 22.5175C44.0462 22.5541 44.2478 22.5545 44.4341 22.6218C44.811 22.7344 45.1996 22.8208 45.5508 23.0029C46.2891 23.2767 46.9593 23.7606 47.4874 24.3542C48.0244 24.9466 48.3962 25.6684 48.6505 26.4157C49.1476 27.9233 49.173 29.5404 48.9078 31.0854C48.7567 31.8566 48.5462 32.6226 48.1561 33.3305C48.0604 33.5078 47.9422 33.6776 47.8042 33.8377C47.6564 33.988 47.4866 34.1537 47.2185 34.1975C47.0749 34.2106 46.9578 34.187 46.8482 34.1429C46.7375 34.0965 46.6294 34.0299 46.5501 33.9394C46.3837 33.7618 46.307 33.5377 46.2753 33.3268C46.2154 32.899 46.2996 32.489 46.4323 32.1072C46.5703 31.7261 46.7667 31.3689 47.0173 31.0525C47.5068 30.416 48.2425 29.938 49.0522 29.8318C49.8544 29.7196 50.6885 29.9223 51.3501 30.373C52.009 30.8326 52.4896 31.489 52.8401 32.185C53.1875 32.887 53.4172 33.6372 53.569 34.3976C53.7201 35.1583 53.7908 35.9351 53.7635 36.7078Z" fill="#263238"/>
<path d="M39.577 28.0254C40.1537 25.6587 38.7022 23.2722 36.3355 22.6955C33.9681 22.1188 31.5812 23.5703 31.0045 25.9369C30.4278 28.3044 31.8793 30.6912 34.2467 31.2679C36.6138 31.8443 39.0002 30.3928 39.577 28.0254ZM37.2926 27.4688C37.0229 28.5751 35.9091 29.2528 34.8036 28.9832C33.6973 28.7135 33.0196 27.5997 33.2893 26.4935C33.5585 25.3879 34.6727 24.7106 35.779 24.9802C36.8842 25.2495 37.5618 26.3633 37.2926 27.4688Z" fill="#263238"/>
<path d="M35.114 31.2903L33.4657 30.8887L33.2728 32.0776L34.7385 32.4348L35.114 31.2903Z" fill="#263238"/>
<path d="M32.1123 29.9709L31.2307 28.5213L30.2535 29.2255L31.0374 30.5147L32.1123 29.9709Z" fill="#263238"/>
<path d="M30.9226 26.9149L31.3243 25.2671L30.1353 25.0737L29.7781 26.5398L30.9226 26.9149Z" fill="#263238"/>
<path d="M32.2424 23.9132L33.6917 23.0317L32.9878 22.0544L31.6986 22.8387L32.2424 23.9132Z" fill="#263238"/>
<path d="M35.298 22.7239L36.9462 23.1256L37.1395 21.9366L35.6735 21.5795L35.298 22.7239Z" fill="#263238"/>
<path d="M38.2997 24.0434L39.1813 25.493L40.1585 24.7888L39.3746 23.4996L38.2997 24.0434Z" fill="#263238"/>
<path d="M39.4894 27.0993L39.0878 28.7475L40.2767 28.9405L40.6339 27.4744L39.4894 27.0993Z" fill="#263238"/>
<path d="M38.1696 30.1011L36.7203 30.9826L37.4246 31.9599L38.7138 31.1756L38.1696 30.1011Z" fill="#263238"/>
<path d="M33.9176 27.7909L35.2404 28.5153L36.5289 27.7307L36.4941 26.2238L35.172 25.4998L33.8828 26.2829L33.9176 27.7909ZM35.319 26.5428C35.5763 26.6053 35.733 26.8634 35.6702 27.1207C35.6077 27.3769 35.3496 27.5347 35.0923 27.4719C34.8361 27.4094 34.6787 27.1502 34.7411 26.894C34.804 26.6371 35.0628 26.4804 35.319 26.5428Z" fill="#263238"/>
<path d="M119.013 52.9423C118.007 51.4104 117.441 49.6874 117.441 47.866C117.441 41.4347 124.504 36.2204 133.21 36.2204C141.916 36.2204 148.972 41.4351 148.972 47.866C148.972 54.2969 141.916 59.5116 133.21 59.5116C128.988 59.5116 125.161 58.2886 122.334 56.2896L116.902 57.6708L119.013 52.9423Z" fill="white"/>
<path d="M119.013 52.9423C118.064 51.5282 117.469 49.8583 117.406 48.1427C117.359 46.431 117.781 44.699 118.66 43.2175C119.52 41.7253 120.744 40.4672 122.128 39.4551C123.514 38.4375 125.073 37.6689 126.702 37.1285C128.33 36.5843 130.027 36.2582 131.738 36.1213C133.452 35.996 135.178 36.1022 136.872 36.3823C137.292 36.4687 137.72 36.5263 138.135 36.6366L139.38 36.9717L140.597 37.4015C141.002 37.5473 141.386 37.7444 141.782 37.9135C143.335 38.6521 144.791 39.62 146.015 40.8419C147.237 42.0589 148.222 43.5459 148.741 45.2098C149.26 46.8678 149.297 48.6877 148.793 50.355C148.302 52.0279 147.34 53.5302 146.135 54.7633C144.927 56.0012 143.483 56.9864 141.938 57.7418C140.393 58.5063 138.729 59.0041 137.041 59.3108C135.35 59.601 133.625 59.7252 131.913 59.6044C130.201 59.4963 128.5 59.1836 126.871 58.6458C125.244 58.1099 123.678 57.3615 122.285 56.3595L122.355 56.3726L116.912 57.7108L116.83 57.731L116.865 57.6543L119.013 52.9423ZM119.013 52.9423L116.939 57.6869L116.892 57.6304L122.313 56.2066L122.35 56.1968L122.383 56.2197C125.18 58.1502 128.553 59.1552 131.929 59.3358C133.621 59.4402 135.323 59.3018 136.985 59.0015C138.645 58.6929 140.281 58.1996 141.794 57.4449C143.307 56.6995 144.716 55.7308 145.887 54.5228C147.056 53.3193 147.98 51.8633 148.447 50.2547C148.928 48.651 148.882 46.9097 148.385 45.3194C147.891 43.7213 146.946 42.281 145.762 41.094C144.575 39.9028 143.156 38.9513 141.635 38.2228C141.248 38.056 140.872 37.8611 140.475 37.7171L139.281 37.2915L138.058 36.9587C137.65 36.8487 137.23 36.7915 136.816 36.7051C135.15 36.4223 133.45 36.3199 131.76 36.4283C130.072 36.5484 128.396 36.8551 126.785 37.3775C125.175 37.8963 123.63 38.6405 122.257 39.6313C120.883 40.616 119.673 41.8465 118.8 43.2987C117.911 44.7435 117.468 46.4429 117.487 48.1401C117.521 49.8407 118.086 51.5136 119.013 52.9423Z" fill="#263238"/>
<path d="M125.098 49.7726V50.6384H121.569V45.5565H125.034V46.4227H122.558V47.6464H124.698V48.4483H122.558V49.7722L125.098 49.7726Z" fill="#263238"/>
<path d="M125.872 50.6388V45.5569H128.119C128.353 45.5569 128.569 45.6059 128.767 45.7039C128.965 45.8019 129.135 45.9305 129.278 46.0902C129.422 46.2503 129.534 46.4317 129.615 46.6344C129.696 46.8371 129.736 47.0413 129.736 47.2462C129.736 47.5754 129.654 47.8749 129.489 48.1446C129.325 48.4142 129.102 48.6087 128.82 48.7277L129.98 50.6388H128.87L127.833 48.9352H126.859V50.6388H125.872ZM126.859 48.069H128.098C128.188 48.069 128.273 48.0477 128.352 48.0047C128.43 47.9617 128.498 47.9034 128.556 47.8293C128.613 47.7556 128.658 47.6685 128.692 47.5683C128.725 47.468 128.742 47.3607 128.742 47.2462C128.742 47.1269 128.723 47.0174 128.685 46.9171C128.646 46.8169 128.595 46.7301 128.531 46.6561C128.466 46.582 128.392 46.5248 128.309 46.484C128.225 46.4436 128.141 46.4231 128.055 46.4231H126.86V48.069H126.859Z" fill="#263238"/>
<path d="M130.631 50.6388V45.5569H132.878C133.112 45.5569 133.328 45.6059 133.526 45.7039C133.724 45.8019 133.894 45.9305 134.038 46.0902C134.181 46.2503 134.293 46.4317 134.374 46.6344C134.455 46.8371 134.495 47.0413 134.495 47.2462C134.495 47.5754 134.413 47.8749 134.248 48.1446C134.084 48.4142 133.861 48.6087 133.579 48.7277L134.739 50.6388H133.629L132.591 48.9352H131.618V50.6388H130.631ZM131.619 48.069H132.857C132.947 48.069 133.032 48.0477 133.111 48.0047C133.19 47.9617 133.257 47.9034 133.315 47.8293C133.372 47.7556 133.417 47.6685 133.451 47.5683C133.484 47.468 133.501 47.3607 133.501 47.2462C133.501 47.1269 133.482 47.0174 133.444 46.9171C133.405 46.8169 133.355 46.7301 133.29 46.6561C133.226 46.582 133.151 46.5248 133.068 46.484C132.984 46.4436 132.9 46.4231 132.814 46.4231H131.619V48.069Z" fill="#263238"/>
<path d="M137.559 50.6743C137.187 50.6743 136.85 50.6018 136.547 50.4563C136.243 50.3108 135.983 50.1174 135.766 49.8766C135.549 49.6357 135.381 49.3601 135.262 49.0501C135.143 48.74 135.083 48.4225 135.083 48.0982C135.083 47.7594 135.146 47.4351 135.273 47.1247C135.399 46.8147 135.574 46.5401 135.795 46.3015C136.017 46.0629 136.281 45.8733 136.586 45.7327C136.891 45.592 137.223 45.5214 137.581 45.5214C137.948 45.5214 138.283 45.5965 138.586 45.7469C138.89 45.8972 139.149 46.094 139.363 46.3374C139.578 46.5805 139.745 46.8577 139.864 47.1677C139.983 47.4781 140.043 47.7927 140.043 48.1124C140.043 48.4513 139.981 48.7744 139.857 49.0822C139.733 49.39 139.561 49.6619 139.342 49.8983C139.122 50.1347 138.859 50.3232 138.554 50.4638C138.249 50.604 137.917 50.6743 137.559 50.6743ZM136.085 48.0979C136.085 48.3174 136.118 48.5298 136.185 48.7348C136.252 48.9401 136.349 49.1215 136.475 49.2789C136.601 49.4364 136.756 49.5628 136.94 49.6582C137.124 49.7535 137.332 49.8014 137.567 49.8014C137.805 49.8014 138.016 49.7528 138.2 49.6548C138.383 49.5572 138.538 49.427 138.665 49.2647C138.791 49.1024 138.887 48.9199 138.951 48.7172C139.016 48.5145 139.048 48.308 139.048 48.0982C139.048 47.8791 139.013 47.6666 138.944 47.4613C138.875 47.2564 138.778 47.0746 138.651 46.9171C138.524 46.7597 138.37 46.6344 138.186 46.5416C138.002 46.4485 137.796 46.4018 137.567 46.4018C137.328 46.4018 137.116 46.4508 136.93 46.5487C136.744 46.6467 136.589 46.7754 136.465 46.9351C136.341 47.0952 136.246 47.2765 136.182 47.4793C136.117 47.6816 136.085 47.888 136.085 48.0979Z" fill="#263238"/>
<path d="M140.802 50.6388V45.5569H143.049C143.283 45.5569 143.499 45.6059 143.697 45.7039C143.895 45.8019 144.065 45.9305 144.208 46.0902C144.352 46.2503 144.464 46.4317 144.545 46.6344C144.626 46.8371 144.666 47.0413 144.666 47.2462C144.666 47.5754 144.584 47.8749 144.419 48.1446C144.255 48.4142 144.032 48.6087 143.75 48.7277L144.91 50.6388H143.8L142.763 48.9352H141.789V50.6388H140.802ZM141.789 48.069H143.028C143.118 48.069 143.203 48.0477 143.282 48.0047C143.361 47.9617 143.429 47.9034 143.486 47.8293C143.543 47.7556 143.588 47.6685 143.622 47.5683C143.655 47.468 143.672 47.3607 143.672 47.2462C143.672 47.1269 143.653 47.0174 143.615 46.9171C143.576 46.8169 143.525 46.7301 143.461 46.6561C143.396 46.582 143.322 46.5248 143.239 46.484C143.155 46.4436 143.071 46.4231 142.985 46.4231H141.79V48.069H141.789Z" fill="#263238"/>
</svg>
